<?xml version="1.0" encoding="utf-8"?>
<!-- Generator: Adobe Illustrator 28.0.0, SVG Export Plug-In . SVG Version: 6.00 Build 0)  -->
<svg version="1.1" id="Layer_1" xmlns="http://www.w3.org/2000/svg" xmlns:xlink="http://www.w3.org/1999/xlink" x="0px" y="0px"
	 viewBox="0 0 283.5 283.5" style="enable-background:new 0 0 283.5 283.5;" xml:space="preserve">
<g>
	<path d="M246.4,24.6C230.5,8.7,209.5,0,187.1,0h-6.7H161h-6.6v6.7V134c-19.1,0-37.6,3.8-55.1,11.2c-16.9,7.2-32.1,17.4-45.2,30.5
		c-13.1,13.1-23.3,28.2-30.5,45.2c-7.3,17.5-11.1,36.1-11.1,55.3v7.4h32.9v-7.4c0-60.1,48.8-109,108.9-109.1v109.1v6.7h6.7h19.5h6.7
		v-6.7V167.7c22.4,0,43.5-8.7,59.3-24.6c15.9-15.9,24.6-36.9,24.6-59.3S262.3,40.4,246.4,24.6z M187.1,32.9
		c28,0,50.8,22.8,50.8,50.8s-22.8,50.8-50.8,50.8V32.9z"/>
</g>
</svg>
