<?xml version="1.0" encoding="utf-8"?>
<!-- Generator: Adobe Illustrator 28.0.0, SVG Export Plug-In . SVG Version: 6.00 Build 0)  -->
<svg version="1.1" id="Layer_1" xmlns="http://www.w3.org/2000/svg" xmlns:xlink="http://www.w3.org/1999/xlink" x="0px" y="0px"
	 viewBox="0 0 283.5 56.7" style="enable-background:new 0 0 283.5 56.7;" xml:space="preserve">
<g>
	<g>
		<polygon points="103.4,56 55.8,56 55.8,0.7 70.9,0.7 70.9,40.8 103.4,40.8 		"/>
		<polygon points="123.6,56 107.6,56 130.3,0.7 146.9,0.7 168.8,56 152.7,56 138.4,20 		"/>
		<path d="M180.7,56h-7.5V0.7h14.9v39.4c16.6-3.9,29.8-20.9,29.8-39.4h14.9C232.9,30.5,209.1,56,180.7,56z"/>
		<polygon points="251.9,41 251.9,35.8 279.2,35.8 279.2,20.9 251.9,20.9 251.9,15.8 283.5,15.8 283.5,0.7 236.9,0.7 236.9,56 
			283.5,56 283.5,41 		"/>
		<path d="M14.9,56H0.1c0,0-0.1,0-0.1-0.1V0.7c0,0,0-0.1,0.1-0.1h32.1c11.3,0,20.4,9.2,19.7,20.5c-0.6,10.1-9,18-19.3,18L22.5,39H15
			c0,0-0.1,0-0.1,0.1V56L14.9,56z M14.9,24.1C14.9,24.2,15,24.2,14.9,24.1l7.6,0.1l10.1,0.1c2.7,0,4.9-2.6,4.2-5.5
			c-0.5-1.9-2.4-3.2-4.4-3.2H15c0,0-0.1,0-0.1,0.1V24.1z"/>
	</g>
</g>
</svg>
