<?xml version="1.0" encoding="utf-8"?>
<!-- Generator: Adobe Illustrator 28.0.0, SVG Export Plug-In . SVG Version: 6.00 Build 0)  -->
<svg version="1.1" id="레이어_1" xmlns="http://www.w3.org/2000/svg" xmlns:xlink="http://www.w3.org/1999/xlink" x="0px"
	 y="0px" viewBox="0 0 283.5 283.5" style="enable-background:new 0 0 283.5 283.5;" xml:space="preserve">
<style type="text/css">
	.st0{fill:#FFFFFF;}
</style>
<g>
	<path class="st0" d="M141.7,0.1c-38.5,0-43.3,0.2-58.4,0.9C68.2,1.6,57.9,4,48.9,7.5c-9.3,3.6-17.2,8.5-25.1,16.3
		C15.9,31.7,11.1,39.6,7.4,49c-3.5,9-5.9,19.3-6.6,34.4C0.2,98.4,0,103.3,0,141.7s0.2,43.3,0.9,58.4c0.7,15.1,3.1,25.4,6.6,34.4
		c3.6,9.3,8.5,17.2,16.3,25.1c7.9,7.9,15.8,12.7,25.1,16.3c9,3.5,19.3,5.9,34.4,6.6c15.1,0.7,19.9,0.9,58.4,0.9
		c38.5,0,43.3-0.2,58.4-0.9c15.1-0.7,25.4-3.1,34.4-6.6c9.3-3.6,17.2-8.5,25.1-16.3c7.9-7.9,12.7-15.8,16.4-25.1
		c3.5-9,5.9-19.3,6.6-34.4c0.7-15.1,0.9-19.9,0.9-58.4s-0.2-43.3-0.9-58.4C281.9,68.3,279.5,58,276,49c-3.6-9.3-8.5-17.2-16.4-25.1
		c-7.9-7.9-15.8-12.7-25.1-16.3c-9-3.5-19.3-5.9-34.4-6.6C185,0.3,180.2,0.1,141.7,0.1L141.7,0.1z M129,25.6c3.8,0,8,0,12.7,0
		c37.8,0,42.3,0.1,57.3,0.8c13.8,0.6,21.3,2.9,26.3,4.9c6.6,2.6,11.3,5.6,16.3,10.6c5,5,8,9.7,10.6,16.3c1.9,5,4.3,12.5,4.9,26.3
		c0.7,14.9,0.8,19.4,0.8,57.2c0,37.8-0.1,42.3-0.8,57.2c-0.6,13.8-2.9,21.3-4.9,26.3c-2.6,6.6-5.6,11.3-10.6,16.3
		c-5,5-9.7,8-16.3,10.6c-5,1.9-12.5,4.3-26.3,4.9c-14.9,0.7-19.4,0.8-57.3,0.8c-37.8,0-42.3-0.1-57.3-0.8
		c-13.8-0.6-21.3-2.9-26.3-4.9c-6.6-2.6-11.3-5.6-16.3-10.6c-5-5-8-9.7-10.6-16.3c-1.9-5-4.3-12.5-4.9-26.3
		c-0.7-14.9-0.8-19.4-0.8-57.2s0.1-42.3,0.8-57.2c0.6-13.8,2.9-21.3,4.9-26.3c2.6-6.6,5.6-11.3,10.6-16.3c5-5,9.7-8,16.3-10.6
		c5-1.9,12.5-4.2,26.3-4.9C97.5,25.8,102.6,25.6,129,25.6L129,25.6z M217.4,49.1c-9.4,0-17,7.6-17,17c0,9.4,7.6,17,17,17
		c9.4,0,17-7.6,17-17C234.4,56.7,226.8,49.1,217.4,49.1L217.4,49.1z M141.7,69C101.5,69,69,101.6,69,141.7
		c0,40.2,32.6,72.7,72.8,72.7c40.2,0,72.8-32.6,72.8-72.7C214.5,101.6,181.9,69,141.7,69L141.7,69z M141.7,94.5
		c26.1,0,47.2,21.1,47.2,47.2c0,26.1-21.2,47.2-47.2,47.2c-26.1,0-47.2-21.1-47.2-47.2C94.5,115.7,115.7,94.5,141.7,94.5z"/>
</g>
</svg>
