<?xml version="1.0" encoding="utf-8"?>
<!-- Generator: Adobe Illustrator 28.0.0, SVG Export Plug-In . SVG Version: 6.00 Build 0)  -->
<svg version="1.1" id="레이어_1" xmlns="http://www.w3.org/2000/svg" xmlns:xlink="http://www.w3.org/1999/xlink" x="0px"
	 y="0px" viewBox="0 0 283.5 283.5" style="enable-background:new 0 0 283.5 283.5;" xml:space="preserve">
<style type="text/css">
	.st0{fill:#FFFFFF;}
</style>
<g>
	<path class="st0" d="M277.5,73.5c-3.3-12.2-12.8-21.8-25.1-25.1c-22.1-5.9-110.7-5.9-110.7-5.9s-88.6,0-110.7,5.9
		C18.8,51.7,9.2,61.3,5.9,73.5C0,95.6,0,141.7,0,141.7s0,46.1,5.9,68.2C9.2,222.2,18.8,231.7,31,235c22.1,5.9,110.7,5.9,110.7,5.9
		s88.6,0,110.7-5.9c12.2-3.3,21.8-12.8,25.1-25.1c5.9-22.1,5.9-68.2,5.9-68.2S283.5,95.6,277.5,73.5z M113.4,184.3v-85l73.6,42.5
		L113.4,184.3z"/>
</g>
</svg>
