<?xml version="1.0" encoding="utf-8"?>
<!-- Generator: Adobe Illustrator 28.0.0, SVG Export Plug-In . SVG Version: 6.00 Build 0)  -->
<svg version="1.1" id="레이어_1" xmlns="http://www.w3.org/2000/svg" xmlns:xlink="http://www.w3.org/1999/xlink" x="0px"
	 y="0px" viewBox="0 0 283.5 283.5" style="enable-background:new 0 0 283.5 283.5;" xml:space="preserve">
<style type="text/css">
	.st0{fill:url(#SVGID_1_);}
	.st1{fill:#FFFFFF;}
</style>
<g>
	
		<linearGradient id="SVGID_1_" gradientUnits="userSpaceOnUse" x1="-141.0417" y1="550.0748" x2="-141.0417" y2="554.3305" gradientTransform="matrix(15.8909 0 0 -43.3991 2297.5405 24092.3633)">
		<stop  offset="0" style="stop-color:#FFFFFF"/>
		<stop  offset="1" style="stop-color:#EFEFEF"/>
	</linearGradient>
	<path class="st0" d="M18.3,38.5h76v207.6h-76V38.5z"/>
	<path class="st1" d="M259.2,122.2c10.9,17.1,5.9,39.7-11.2,50.6c-0.2,0.1-0.4,0.3-0.6,0.4L76.2,277.9c-17.7,10.8-40.9,5.5-52-12
		c-10.9-17.1-5.9-39.7,11.2-50.6c0.2-0.1,0.4-0.3,0.6-0.4l171.2-104.7C224.9,99.3,248,104.7,259.2,122.2L259.2,122.2z"/>
	<path class="st1" d="M23.9,17.7C35.1,0.1,58.3-5.2,76.1,5.6l171.6,104.7c17.3,10.6,22.8,33.2,12.2,50.5c-0.1,0.2-0.3,0.4-0.4,0.6
		c-11.2,17.5-34.4,22.9-52.1,12.1L35.8,68.8C18.5,58.2,13,35.6,23.5,18.3C23.7,18.1,23.8,17.9,23.9,17.7z"/>
</g>
</svg>
