<?xml version="1.0" encoding="utf-8"?>
<!-- Generator: Adobe Illustrator 28.0.0, SVG Export Plug-In . SVG Version: 6.00 Build 0)  -->
<svg version="1.1" id="레이어_1" xmlns="http://www.w3.org/2000/svg" xmlns:xlink="http://www.w3.org/1999/xlink" x="0px"
	 y="0px" viewBox="0 0 283.5 283.5" style="enable-background:new 0 0 283.5 283.5;" xml:space="preserve">
<style type="text/css">
	.st0{fill:#FFFFFF;}
	.st1{fill:#EEEEEE;}
</style>
<g>
	<path class="st0" d="M114.1,113.3l0-12.7c-3.8-0.5-7.6-0.8-11.6-0.8c-47.3-0.1-85.8,38.5-85.8,85.9c0,29.1,14.5,54.8,36.7,70.4
		c-3.2-11.6-21.9-35.8-21.9-58.4C31.4,150.9,67.7,114.4,114.1,113.3L114.1,113.3z"/>
	<path class="st0" d="M116.6,237.5c24.1-1.5,38.9-17.3,39.5-38.5L156.4,13c11-0.4,33.3-0.1,33-1.1C188.7,8,188.3,4,188.3,0h-46.6
		l-0.1,187.1c-0.8,20.9-18,37.8-39.1,37.8c-6.6,0-12.7-1.6-18.2-4.5C84.2,226.1,103.4,238.4,116.6,237.5L116.6,237.5z M253.3,75.4
		V65c-13,0-25.1-3.8-35.3-10.5C222,69.8,241.5,83.4,253.3,75.4L253.3,75.4z"/>
	<path class="st1" d="M217.9,54.4C208,43,202,28.1,202,11.9l-13.4,0C191.8,29.6,199.9,52.7,217.9,54.4L217.9,54.4z M102.5,146.4
		c-21.6,0-39.2,17.6-39.2,39.2c0,15.1,10.7,37.8,21,34.7c-4.7-6.4-7.4-14.3-7.4-22.9c0-21.6,17.6-39.2,39.2-39.2
		c4,0,7.9,0.7,11.6,1.8v-47.7c-3.8-0.5-7.6-0.8-11.6-0.8c-0.7,0-1.3,0.1-2,0.1l-1.4,35.1C109,145.6,106.5,146.4,102.5,146.4
		L102.5,146.4z"/>
	<path class="st1" d="M253.3,75.4l-1.6,35.3c-24.2,0-45.4-8.7-63.7-21.8l-1.2,96.7c-0.6,47.4-35.9,84.8-83.3,84.8
		c-18.3,0-42.5-13.6-50.3-14.4c15.7,16.8,38.1,27.4,62.8,27.4c47.3,0,85.9-38.5,85.9-86v-94.9c18.3,13.1,40.7,20.9,64.9,20.9V76.8
		C262.1,76.8,257.6,76.3,253.3,75.4L253.3,75.4z"/>
	<path class="st0" d="M188.4,185.7V90.8c18.3,13.1,40.7,20.9,64.9,20.9V75.4c-14-3-26.3-10.5-35.3-20.9
		c-14.6-9.5-25.1-24.8-28.5-42.6h-34.2L155.2,199c-0.8,20.9-18,37.8-39.1,37.8c-13.1,0-24.6-6.5-31.8-16.3
		c-12.5-6.6-21-19.7-21-34.7c0-21.6,17.6-39.2,39.2-39.2c4,0,7.9,0.7,11.6,1.8v-36.6c-46.4,1-83.8,39.1-83.8,85.8
		c0,22.6,8.8,43.1,23.1,58.5c13.9,9.8,30.9,15.6,49.2,15.6C149.8,271.6,188.4,233,188.4,185.7L188.4,185.7z"/>
</g>
</svg>
