<?xml version="1.0" encoding="utf-8"?>
<!-- Generator: Adobe Illustrator 28.0.0, SVG Export Plug-In . SVG Version: 6.00 Build 0)  -->
<svg version="1.1" id="레이어_1" xmlns="http://www.w3.org/2000/svg" xmlns:xlink="http://www.w3.org/1999/xlink" x="0px"
	 y="0px" viewBox="0 0 283.5 283.5" style="enable-background:new 0 0 283.5 283.5;" xml:space="preserve">
<style type="text/css">
	.st0{fill-rule:evenodd;clip-rule:evenodd;}
</style>
<path class="st0" d="M0,75.9c0,0,9.5-5.6,14-7.7s9-3.8,13.2-5.2c4-1.3,8.1-2.3,12.2-3c3.9-0.7,7.5-1.1,10.9-1.2
	c3.4-0.1,6.6,0,9.4,0.3c2.9,0.3,5.5,0.8,7.7,1.4c2.3,0.6,4.2,1.4,5.8,2.2c0.4,0.2,1.1,0.6,1.8,1.1c0.8,0.5,1.6,1.1,2.6,1.9
	c1.1,0.9,2,1.8,3,2.8c1.1,1.2,2.1,2.5,3,3.8c1,1.6,1.9,3.2,2.6,5c0.8,2,1.5,4.1,1.9,6.2c0.5,2.3,0.7,4.8,0.8,7.5
	c0,2.7-0.2,5.7-0.7,9l-1,6.2l-1,6.2l-1,6.2l-1,6.2l-1,6.2l-1,6.2l-1,6.2l-1,6.2c-0.4,2.5-0.6,5-0.9,7.5c-0.2,2.3-0.3,4.5-0.3,6.6
	c0,2,0.1,3.9,0.2,5.6c0.2,1.7,0.4,3.2,0.8,4.6c0.4,1.4,0.9,2.6,1.5,3.6s1.3,1.9,2.1,2.6c0.8,0.7,1.8,1.2,2.8,1.6
	c1.1,0.4,2.2,0.5,3.6,0.5c1.1,0,2.4-0.2,3.8-0.6c1.4-0.4,2.8-1,4.3-1.8s3-1.9,4.6-3.2s3.1-2.9,4.6-4.8s3-4.1,4.4-6.6s2.8-5.4,4-8.6
	c1.2-3.2,2.4-6.8,3.3-10.7c1-3.9,1.8-8.3,2.4-13l1.1-8.2l1.1-8.2l1.1-8.2l1.1-8.2l1.1-8.2l1.1-8.2l1.1-8.2l1.1-8.2h47.6l-1.4,10.6
	L175,88.5l-1.4,10.6l-1.4,10.6l-1.4,10.6l-1.4,10.6l-1.4,10.6l-1.4,10.6c-0.4,2.8-0.6,5.4-0.8,7.8c-0.2,2.4-0.3,4.5-0.3,6.5
	s0.1,3.7,0.3,5.3s0.5,3,0.9,4.2s0.9,2.3,1.4,3.1c0.6,0.9,1.2,1.6,2,2.2c0.8,0.6,1.6,1,2.6,1.2c1,0.3,2,0.4,3.2,0.4
	c1.3,0,2.7-0.2,4.2-0.7s3.1-1.2,4.7-2.2c1.6-1,3.2-2.3,4.9-3.9c1.6-1.6,3.3-3.6,4.9-5.9c1.6-2.3,3.2-5,4.8-8.1
	c1.5-3.1,3-6.6,4.4-10.6s2.7-8.4,3.8-13.4c1.2-4.9,2.2-10.4,3.1-16.3c0.3-2.4,0.7-4.7,0.9-7.1c0.3-2.3,0.5-4.5,0.6-6.7
	c0.2-2.2,0.3-4.4,0.4-6.5c0.1-2.2,0.1-4.3,0.1-6.4c0-2.2-0.1-4.3-0.1-6.5c-0.1-2.2-0.2-4.4-0.4-6.6c-0.2-2.3-0.4-4.5-0.6-6.9
	c-0.3-2.5-0.6-4.9-0.9-7.3h49.5c0.2,0.9,0.3,2.2,0.4,3.9c0.1,1.7,0.2,3.7,0.4,6c0.2,2.3,0.4,4.8,0.8,7.6c0.4,2.9,0.9,5.8,1.5,8.6
	c0.7,3,1.5,6.1,2.5,9.2c1.1,3.1,2.4,6.2,4,9.1c1.6,3,3.5,5.9,5.7,8.6c2.3,2.8,4.9,5.3,7.8,7.5l-1.2,9.1l-1.2,9.1l-1.2,9.1l-1.2,9.1
	c-6.2-2.4-11.9-5.9-17-10.2c-1.7-1.4-3.3-3-4.8-4.6c-1.8,7-3.9,13.4-6.3,19.3c-2.4,5.9-5.2,11.3-8.2,16.1c-3,4.9-6.3,9.2-9.8,13.1
	c-3.4,3.8-7.2,7.2-11.2,10.3c-3.9,2.9-8,5.5-12.3,7.6c-4.2,2.1-8.6,3.9-13.2,5.2c-4.5,1.4-9.1,2.3-13.7,3c-4.7,0.6-9.4,1-14.1,1
	c-3.2,0-6.2-0.2-9.1-0.5c-2.8-0.4-5.5-0.9-8-1.6c-2.4-0.6-4.7-1.5-7-2.5c-2.1-0.9-4.1-2.1-6-3.3c-1.8-1.2-3.5-2.6-5-4.1
	s-2.8-3.1-4-4.8s-2.2-3.5-3.1-5.4s-1.6-3.9-2.2-5.9c-2.5,3.7-5.1,6.9-7.8,9.7c-2.6,2.6-5.4,5-8.4,7.2c-2.7,1.9-5.6,3.6-8.5,5
	c-2.6,1.3-5.3,2.4-8.1,3.3c-2.4,0.8-4.8,1.4-7.2,1.9c-1.9,0.4-3.8,0.7-5.8,0.9c-1.6,0.2-2.9,0.2-3.8,0.3c-0.9,0-1.4,0-1.4,0
	c-4.3,0-8.2-0.4-11.8-1.2c-3.6-0.8-6.9-2-9.9-3.5c-2.9-1.5-5.7-3.4-8.1-5.6c-2.4-2.2-4.5-4.7-6.2-7.5c-1.8-2.8-3.2-5.9-4.4-9.3
	c-1.2-3.4-2-7-2.5-10.9s-0.8-8-0.7-12.3c0.1-4.3,0.4-8.9,1.1-13.6l1-6.4l1-6.4l1-6.4l1-6.4l1-6.4l1-6.4l1-6.4l1-6.4
	c0.1-1.2,0-2.2-0.2-3c-0.2-0.9-0.5-1.6-0.8-2.2s-0.8-1.1-1.3-1.5s-1.1-0.7-1.7-0.9c-0.6-0.2-1.2-0.4-1.8-0.4
	c-0.6-0.1-1.2-0.1-1.8-0.1c-0.6,0-1.2,0.1-1.7,0.2s-1,0.2-1.4,0.3c-0.9,0.2-1.7,0.5-2.4,0.7c-1.5,0.5-3,1-4.5,1.6
	c-0.7,0.3-1.4,0.6-2.1,1c-0.7,0.3-1.4,0.7-2.2,1.1C15.3,106.4,0,75.9,0,75.9L0,75.9z"/>
</svg>
