<?xml version="1.0" encoding="UTF-8"?>
<svg id="_레이어_1" data-name="레이어_1" xmlns="http://www.w3.org/2000/svg" version="1.1" viewBox="0 0 372.7 109">
  <!-- Generator: Adobe Illustrator 29.2.1, SVG Export Plug-In . SVG Version: 2.1.0 Build 116)  -->
  <defs>
    <style>
      .st0 {
        fill: #fff;
      }
    </style>
  </defs>
  <path class="st0" d="M19.2,101.5l.2-7.1v-2.1s1.3.8,1.3.8l1.6,1,1.6,1,3.1-3.4c8.9-9.8,15.2-20.3,17.5-28.9,2.9-11.3,1.6-23.9-3.8-34.2-2.9-5.6-7.4-11.2-8.9-11.2h-.9l-4.8,5.6c-1.3,1.6-2.8,3.2-4.2,4.6-.6.6-2.3,1.8-2.4,1.8,0-.8,0-1.7,0-2.5-.4-.9-2.1-3.5-3.8-5.6-1.4-1.4-2.3-2.8-3.9-4.4-.4-.2-3.2,2.6-5.8,5.3l-4.8,4.9,1.6,3.3,1.6,3.3v39.8c-1.5,1.6-2.9,2.9-4.3,4.4,1.5,1.4,3.4,3.5,4.3,4.3v26.8c2.6,0,5.2-.1,7.8-.2l6.8-.2.2-7.1ZM23.6,75l-4.3-4v-31l1.7-2,1.7-2c6.5,2.4,9.2,14.7,10.2,20.7.7,7.7,1.2,16.6-4.7,22.4l-4.7-4.1ZM275.4,91.5c4-5.4,20.3-33.6,14.3-57.4-2.1-8.4-4.3-11.6-11-17l-1.6,2.2c-.9,1.2-3,3.8-4.8,5.7-1.8,1.9-3.2,3.9-3.2,4.5,0,1,7.8,7.6,11.1,18.4,3.8,12.4-1.2,24-3,26.5,0,0-6.8-12.3-8.6-21.9-1-5.5-2.5-26.3-2.7-30.8l-.2-3.8h-1.1c-.6.2-3.7.9-6.7,1.7l-5.6,1.5-.2,7c-.2,5.3.1,10.4.6,15.7,2.1,20.6,7.4,37.5,15.1,47.8l2.9,3.9.9,1.2.9-1.2,2.9-3.9ZM184.9,85.1c.8,1.7,3.2,3.8,4.4,5l3.4,3.8,1,1,1.3-1,4.2-3.8c2.3-2.1,4.4-4.4,4.8-4.9l1.2-1.2c-1.7-1.8-2.4-2.6-3.7-4.9V27.8s-1-.8-1-.8l-7.8-5.2c-4.3-2.8-8.1-5.2-8.4-5.2-.5,0-16.5,12.9-19.2,16.5h15.5c1.9,0,3,2.6,3.7,4.4,0,.4-1.9,1.8-4.2,3.1s-6.1,4.2-8.5,6.4c-4.4,3.2-7.2,7.7-9,12.8-1.2,3.4-1.8,7.1-1.8,10.7,0,2.9.8,5.9,1.7,8.7,1.4,4.7,3.9,8.6,7.6,11.8,2,2,3.9,3.6,4.3,3.6,3.9-3.3,7-6.1,10.5-9.6M180,75.8c-4.3-4.9-4.9-10.7-3.9-16.9.4-2.7,1.1-5.5,2.5-7.9,1.3-2.1,3.3-5.5,5.1-5.4,1.8.1,2.1,2.9,2.1,2.9v25.1c-.4,3.1-1.6,6.9-5.8,2.1M365.6,88.6c5.8-5.8,6-6.3,7.1-8-1,.1-2-.2-3-.5-5.3-1.6-8.9-5.7-12.1-10-2.1-2.8-3.8-5.4-3.8-5.9,0-.5,4.2-5.7,9.4-11.6s9.4-11,9.4-11.4-3.1-6.3-6.9-13l-6.9-12.3c-.1-.2-.5-.8-.5-.8,0,0-3.1,2.4-4.1,3.3-4.4,3.9-9.3,11.6-11.3,15.9-.4.7-7.8,13.2-3.5,32.1,1,4.4,6,21.4,19,28.3,0,0,5.3-4.1,7.4-6.2h0ZM350.9,36.2c.8,0,4.2,5.3,5.7,8.8,1.9,3.1,0,5.6-2.1,8.1l-2.3,2.6-2,1.9c-5.3-13-.2-21.4.7-21.4M111.4,47.2l.2-45.7V0s-1.2.2-1.2.2l-7.1,1.2c-3.9.6-7.9,1.5-8.8,1.9l-1.9.5c.7,1.5,2,3,2.6,4.6.2.8.3,2.8.3,2.8l.2,38.9c.1,22.7.4,41.7.5,42.2v1c0,0,7.7-.2,7.7-.2l7.3-.2.2-45.7Z"/>
</svg>