<svg xmlns="http://www.w3.org/2000/svg" width="360" height="133" fill="none" viewBox="0 0 360 133"><path fill="#fff" d="M355.875 11.398c-1.96-3.33-5.83-7.56-13.2-8.85-12.12-2.12-23.25-.15-29.76 5.26-.57.47-1.31.61-2 .39-3.37-1.13-15.18-4-25.78 6.43-.42.41-.99.63-1.58.59-.58-.04-1.12-.33-1.47-.79-1.61-2.08-5.77-6.9-9.77-6.57-16.45 1.32-25.9 14.85-29.2 20.6-.35.61-.97 1-1.66 1.05-.68.04-1.33-.25-1.75-.79-3.57-4.61-15.44-6.37-23.96-3.55-.51.17-1.06.13-1.54-.11a2.1 2.1 0 0 1-1.05-1.23c-1.19-3.63-3.55-5.44-7.22-5.54-.96-.03-1.77-.73-1.94-1.67-.86-4.7-3.91-12.86-14.71-14.62-9.92-1.62-28.36.79-34.57 20.05-.17.53-.53.96-1.01 1.21-1.35.69-6.12 3.68-10.55 13.43-.38.84-1.22 1.32-2.13 1.2-.9-.11-1.6-.76-1.77-1.65-.31-1.6-.78-2.96-1.4-4.04-.35-.6-.33-1.39.05-2.04 2.56-4.39 2.38-9.19-.49-13.16-4.11-5.69-17.61-7.07-27.24-2.78-.56.25-1.2.25-1.75-.01-.53-.24-.9-.68-1.06-1.23-.38-1.31-1.19-2.15-2.33-2.41-1.54-.35-3.48.4-4.83 1.88-.38.42-.9.65-1.46.66-.6.02-1.11-.22-1.51-.62-13.58-13.9-45.5-14.27-62.86-5.31-.62.32-1.33.31-1.94-.02-2-1.1-19.79-10.45-28.4-.88-4.23 4.71-4.34 17.47 6.46 29.21.73.8.71 2.03-.05 2.8-1.61 1.64-4.08 6.99 7.88 21.14l.66.77c5.44 6.41 10.13 11.95 7.75 24.22-1.04 5.39-2.53 10.06-3.85 14.18-2.77 8.67-4.77 14.94-.85 21.28 5.43 8.78 18.51 9.56 28.03 5.23.93-.43 2.07-.06 2.58.83.85 1.46 2.51 2.43 4.82 2.78 5.19.8 13.94-1.61 21.78-8.79a2.06 2.06 0 0 1 2-.46c.7.21 1.22.76 1.39 1.47 1.55 6.35 6.24 10.46 12.87 11.27 7.94.97 13.52-2.25 16.6-9.56.16-.38.42-.7.75-.93 9.5-6.36 21.4-9.26 31.91-11.83 9.45-2.31 17.62-4.3 22.23-8.22.61-.52 1.44-.65 2.17-.36.7.29 1.17.91 1.24 1.67.54 5.68 6.4 9.31 19.62 12.15 5.98 1.28 11.08 3.95 16.02 6.54 4.1 2.14 7.97 4.17 12.12 5.31 6.84 1.89 12.4.03 14.85-4.96.25-.51.71-.89 1.27-1.04.58-.16 1.2-.05 1.7.28 5.97 3.98 12.61 4.01 25.38.09 3.9-1.2 6.91-2.26 9.33-3.12 8.75-3.09 10.58-3.73 21.96.46 14.43 5.33 22.98 7.65 29.68 5.56 8.65-2.7 9.21-11.72 9.58-17.68.08-1.25.15-2.34.28-3.23.73-4.92 3.64-7.64 6.72-10.5 2.75-2.56 5.6-5.21 7.23-9.72 1.21-3.34 1.05-6.31-.46-8.58-1.8-2.71-5.5-4.38-10.14-4.61-.85-.04-1.55-.56-1.84-1.34-.29-.79-.08-1.65.54-2.23 7.17-6.69 11.02-15.02 10.04-21.73-.12-.83.3-1.66 1.05-2.06 2.72-1.47 9.34-5.77 12.16-13.87 1.96-5.64 1.34-12.27-1.62-17.3"/><path fill="#42A8E8" d="M357.975 16.728c-4.42-11.87-29.7-13.5-42.02-2.84-.25.21-.58.25-.88.11-6.18-3.03-19.04-.85-28.74 8.5-1.98-6.91-7.04-11.38-15.84-9.2-11.03 2.74-20.04 10.01-24.87 26.54-4.77-8.65-17.24-11.4-29.18-9.53a.79.79 0 0 1-.87-.53c-1.96-5.4-6.67-8.57-9.73-8.19-.4.05-.75-.21-.86-.59-2.35-8.37-10.24-14.87-20.77-14.09-11.68.87-22.28 8.39-25.56 21.56-.06.25-.25.44-.5.51-3.98 1.17-8.45 7.24-12.01 15.52-1.04 2.4-4.57 1.89-4.85-.71-.37-3.5-1.09-6.91-2.39-9.55-.17-.35-.19-.74-.09-1.1-.22-.52-.46-1.02-.76-1.47a.78.78 0 0 1-.02-.84c1.11-1.78 1.82-3.72 2.05-5.71-.72-1.96-2.17-3.72-4.1-5.02-4.2-2.84-16.67-4.36-24.78.2-.07.04-.15 0-.17-.06-1.44-3.6-4.85-4.51-9.16-.97-.17.14-.42.12-.56-.04-13.82-15.9-40.56-14.99-65.09-7.12-.38.12-.79.1-1.15-.07-2.51-1.2-13.19-5.88-21.04-2.44-8.8 3.86-7.34 18.4 3.87 29.84.29.3.32.77.05 1.08-3.18 3.73.46 11.64 3.2 15.93 3.83 5.97 11.91 15.6 11.91 28.47s-10.31 22.82-4.05 33.7c3.35 5.83 9.06 8.57 14.7 9.04 2.5-.49 4.97-1.29 7.26-2.42.42-.21.93.04 1.01.5.06.33.24.58.42.83 1.35-.48 2.6-1.1 3.69-1.84.33-.22.78-.21 1.05.08 2.31 2.5 6.72 3.35 11.63 2.5 3.57-1.5 7.29-3.8 10.76-6.98.81-.74 2.06-.44 2.47.52 2.48-2.16 4.77-4.72 6.27-8.42-3.16 13.23 3.71 20.09 10.57 20.46 1.81-.07 3.45-.38 4.92-.92 2.58-1.18 4.74-3.48 5.75-6.92.07-.23.22-.43.44-.54.81-.41 1.63-.78 2.45-1.17.05-.47.3-.91.69-1.17 17.84-11.95 44.21-11.6 54.19-20.08a1.6 1.6 0 0 1 1.75-.22c5.68-4.74 6.56-10.27 4.27-14.91-.24-.49-.23-1.06.06-1.52.51-.82 1.35-2.32 2.08-4.4.24-.68 1.19-.75 1.53-.11 5.29 9.89 1.05 14.64.95 20.43-.15 8.82 5.02 12.47 15.11 14.94 7.39 1.81 11.53 4 15.89 6.23 9.6 4.92 17.11 5.44 22.11 2.97.95-.86 1.77-1.92 2.4-3.21.38-.77 1.31-1.03 2.06-.66.73-1.06 1.32-2.26 1.74-3.59.14-.44.47-.51.76-.15 4.86 5.86 10.98 6.63 17.85 5.55 1.76-.43 3.63-.95 5.63-1.56 15.21-4.67 16.55-7.17 25.58-4.49 2.67.46 5.48 1.25 8.63 2.39 13.66 4.97 19.63 5.97 25.61 4.37 5.18-1.38 8.11-4.26 9.89-8.87 1.25-4.41 1.08-9.14 1.47-11.82 1.25-8.48 9.27-10.21 13.18-18.36-.22-7.32-6.24-12.03-17.94-10.06-.02 0-.03-.02-.01-.03 2.33-1.57 4.54-3.68 6.6-6.04-.55-.59-.63-1.57.07-2.21 3.34-3.11 5.85-6.44 7.57-9.73 1.44-3.31 2.36-6.69 2.54-9.87.02-.26.1-.5.22-.72a14 14 0 0 0-.14-1.85c-.09-.63.23-1.25.8-1.55 2.58-1.4 9.49-5.8 12.4-14.15.69-1.98 1.08-4.1 1.15-6.24-.07-2.03-.44-4.02-1.14-5.9z"/><path fill="#000" d="M342.765 2.058c-13.63-2.38-24.35.54-30.17 5.37-.43.36-.99.47-1.52.3-3.24-1.09-15.42-4.14-26.29 6.54-.66.65-1.74.59-2.31-.15-1.89-2.45-6.05-7.1-10.21-6.76-5.36.43-19.42 3.1-29.59 20.85-.55.97-1.9 1.08-2.58.2-3.62-4.67-15.48-6.71-24.52-3.72-.83.27-1.69-.2-1.96-1.03-1.2-3.65-3.62-5.77-7.68-5.89-.72-.02-1.34-.54-1.47-1.26-1.18-6.46-5.15-13.4-15.12-15.02-10.38-1.69-28.85.92-35.13 20.39-.13.39-.39.73-.76.91-1.59.81-6.34 3.9-10.78 13.67-.63 1.39-2.67 1.16-2.95-.34-.28-1.47-.74-2.94-1.46-4.19-.28-.48-.23-1.06.05-1.54 2.44-4.18 2.73-9.21-.52-13.7-4.29-5.93-18.15-7.26-27.84-2.94-.84.38-1.87-.03-2.13-.92-1.12-3.87-5.48-3.51-8.01-.73-.6.66-1.62.66-2.24.03-14.21-14.54-46.63-14.08-63.45-5.4-.47.24-1.01.23-1.47-.02-7.02-3.85-21.53-9.09-29.01-.77-4.36 4.85-4.65 17.81 6.47 29.88.55.6.53 1.53-.04 2.11-2.35 2.39-3.35 8.55 7.86 21.81 5.82 6.89 10.73 12.07 8.3 24.58-3.21 16.56-10.6 26.16-4.63 35.82 5.43 8.78 18.51 10.03 28.66 5.42.71-.32 1.55-.05 1.94.62 3.19 5.52 16.52 4.04 27.37-5.89.88-.8 2.28-.39 2.57.76 1.43 5.87 5.78 10.73 13.3 11.64 8.84 1.08 14.21-2.95 17.13-9.86.12-.28.32-.53.57-.7 17.84-11.95 44.21-11.6 54.19-20.08.97-.82 2.47-.28 2.59.98.53 5.67 5.9 9.56 20.01 12.6 10.81 2.32 18.84 9.28 28.11 11.84 6.71 1.85 12.71.32 15.43-5.22.41-.83 1.47-1.08 2.25-.57 6.55 4.36 13.9 3.8 25.8.15 17.8-5.46 16.6-7.97 30.97-2.66 14.48 5.34 23.17 7.7 30 5.56 10.81-3.38 9.45-16.17 10.21-21.32 1.34-9.06 10.4-10.41 13.92-20.13 3.13-8.63-2.87-13.47-11.05-13.86-1.39-.07-2-1.76-.98-2.7 7.79-7.27 11.14-15.7 10.2-22.17-.09-.63.23-1.25.8-1.55 2.58-1.4 9.49-5.8 12.4-14.15 3.6-10.36-1.01-24.33-15.2-26.8zm-1.05 40.87c-.49.26-.8.75-.83 1.3-.5 8.48-6.18 18.28-12.97 24.75-1.03.98-.32 2.69 1.1 2.68 8.37-.05 12.74 4.17 13.03 10.26.51 10.56-11.43 13.4-12.78 22.69s-4.11 14.58-11.75 16.61c-5.99 1.59-11.95.6-25.61-4.37-10.93-3.98-17.75-3.79-28.84.47-11.68 4.49-20.26 5.53-27.39-1.81-.78-.81-2.13-.51-2.55.53-3.27 8.27-13.13 11.18-27.98 3.56-4.36-2.23-8.5-4.42-15.89-6.23-10.09-2.47-15.27-6.11-15.11-14.94.09-5.48 3.89-10.03-.18-18.88-.57-1.25-2.34-1.21-2.88.05-.56 1.32-1.12 2.3-1.5 2.91-.29.46-.3 1.03-.06 1.52 3.08 6.22.45 14.06-11.81 19.41-12.38 5.41-32.13 8.53-51.25 18-.39.19-.67.55-.81.97-3.8 11.94-21.63 9.7-21.94-6.21-.03-1.45-1.8-2.08-2.75-.99-8.51 9.76-22 11.8-27.19 7.09-.53-.48-1.29-.59-1.89-.21-7.29 4.58-20.7 3.98-26.66-6.38-6.26-10.88 4.05-20.83 4.05-33.7s-8.08-22.49-11.91-28.47c-2.66-4.15-6.15-11.68-3.5-15.55.41-.6.29-1.4-.2-1.92-10.81-11.37-12.11-25.57-3.43-29.38 7.84-3.44 18.51 1.23 21.03 2.43.36.17.77.2 1.15.08 24.11-7.73 50.37-8.75 64.38 6.32.54.58 1.43.69 2.07.22 3.46-2.47 6.27-1.98 7.81.48.4.65 1.24.87 1.93.55 8.09-3.79 19.58-2.29 23.58.42 4.24 2.87 6.22 7.94 3.03 12.61-.32.46-.36 1.04-.12 1.54 1.3 2.64 2.03 6.05 2.39 9.55.27 2.6 3.81 3.12 4.85.71 3.47-8.05 7.79-14.02 11.69-15.41.47-.17.8-.58.93-1.06 3.4-12.9 13.9-20.25 25.44-21.11 10.32-.77 18.1 5.45 20.62 13.58.2.63.79 1.08 1.45 1.07 2.96-.05 7.15 2.88 9.11 7.74.26.66.96 1.02 1.66.92 10.51-1.5 21.31.58 26.84 7.11.8.94 2.29.68 2.69-.48 5.01-14.42 13.57-20.98 23.91-23.54 7.88-1.96 12.75 1.42 15.11 7.1.4.96 1.64 1.23 2.43.56 9.27-7.88 20.74-9.74 26.69-7.13.54.24 1.15.12 1.6-.26 12.45-10.31 37.27-8.59 41.65 3.16 3.78 10.16-2.03 23.47-12.46 29.11z"/><path fill="#000" d="M336.945 14c-.14.07-.3.08-.44 0-.86-.53-4.5-2.38-10.35-.05-14.1 5.6-25.63 2.53-29.33 7.78-.16.23-.51.24-.71.03-1.6-1.72-4.9-1.06-7.19 1.85-2.46 3.13-3 7.52-1.46 11.97 1.18 3.41-4.83 11.19-2.73 18.99.06.23-.06.46-.28.54-7.75 2.84-9.69 17.61-18.94 25.89-.28.25-.74.07-.77-.31-.2-2.41-.39-9.63 2.96-20.18 4.16-13.11 8.48-20.44 8.18-29.38-.32-9.35-1.31-12.41-4.76-13.29s-7.02 4.34-11.12 6.97c-4.1 2.64-9.83.74-10.05 10.22-.14 6.07.03 12.28-7.24 16.36-.2.11-.45.07-.59-.11-.73-.91-3.13-3.57-6.83-4.39a.457.457 0 0 1-.32-.64c1.74-3.98 1.17-6.56-1.42-8.99-2.33-2.19-13.52-5.09-26.09-2.11a.44.44 0 0 1-.54-.32c-1.44-5.35-6.43-10.19-11.88-12.18a.43.43 0 0 1-.29-.35c-.24-1.52-1.78-9.25-8.1-11.27-6.89-2.2-13.96.59-17.33 5.5s-5.5 10.22-9.88 20.36-10.84 19.3-16.04 25.42c-5.04 5.94-8.33 7.84-5.56 12.06.15.22.09.51-.14.65-8.63 5.15-17.71 21.78-25.97 21.39-7.97-.38-5.7-18.03-2.39-23.4 3.31-5.38 10.91-5.99 16.04-10.23 5.6-4.63 6.81-12.28 5.57-22.2-1.92-15.48-.06-18.15-1.51-18.37-1.75-.27-3.18 5.18-10.58 4.88-5.84-.24-16.94-7.26-22.16-1.35-.23.26-.64.21-.78-.11-4.63-10.77-16.18-16.95-23.67-11.32-.23.18-.55.1-.69-.16-2.37-4.39-10.36-4.46-20.18-1.53-12.75 3.81-17.18 5.63-23.87 4.12-4.97-1.12-10.58-4.77-14.01-2.01-3.4 2.73-1.34 12.11 6.99 17.69.16.11.24.31.18.5-1.86 6.62 2.28 15.12 7.64 21.25 5.78 6.62 7.96 22.17 7.95 34.33 0 12.159-7.21 23.739 6.61 26.139 13.48 2.35 28.45-.13 28.63-8.75 0-.32.31-.54.61-.44 2.87.96 5.65.96 7.48.32 4.6-1.59 5.36-7.43 1.82-13.12-3.32-5.32-7.84-7.15-16.28-6.44s-12.63-3.38-14.84-7.98c-1.66-3.46-2.06-7.56-1.35-13.21.04-.31.38-.5.66-.36 17.94 8.88 41.25-.36 46.49-19.7.1-.35.53-.47.78-.2.9.99 2.3 3.73.24 10.34-2.82 9.06-5.99 10.97-3.39 18.49s3.7 12.22 2.12 21.04c-1.57 8.82-4.93 18.52-1.55 21.64 3.38 3.13 10.8-3.25 23.91-8.48 19.41-7.75 35.7-7.83 42.4-16.28 2.49-3.14 2.08-9.51-.39-12.85-.2-.27-.08-.63.23-.73 4.86-1.66 5.67-9.03 9.8-13.65.2-.23.57-.18.73.07 3.01 4.58 7.7 6.35 16.36 6.2.36 0 .59.37.42.68-3.9 6.86-7.47 15.28-6.02 24.75 1.55 10.09 8.73 8.8 15.67 11.02 17.35 5.54 24.96 7.06 28.42 2.06 3.83-5.53-2.08-11.07-5.36-13.63-3.17-2.47-6.36-19.35-7.24-31.68-.03-.43.51-.66.81-.34 10.75 11.67 10.25 17.93 18.43 20.73.14.05.25.17.29.31 1.81 6.59 5.26 9.88 5.15 12.77-.12 3.33-.25 8.86 5.65 10.44.26.07.4.34.32.59-1.07 3.48 1.89 5.53 4.6 5.29 3.35-.3 8.01-3.15 15.29-5.48 9.23-2.96 17.23-3.19 28.22.5 10.84 3.64 12.04 6.43 18.79 6.08 6.75-.34 4.27-7.03 7.31-11.72s8.05-10.16 12.64-15.38c4.59-5.23 1.48-6.75-3.25-6.5s-7.15-5.65-11.34-6.72-12.37 2.55-17.15.04c-4.78-2.52-3.71-7.62.46-7.74s5.33 5.49 10.07 5.81 12.03-6.22 13.83-10.73c1.68-4.21.32-8.71-6.48-8.13s-8.82 1.43-9.21-1.02.23-3.35 3.89-2.33c3.66 1.01 11.54 3.32 14.08 2.59 2.53-.73 2.31-6.97 7.72-13.37 5.4-6.4 12.94-13.81 13.98-19.08 1.04-5.22-3.87-9.76-10.42-6.38zm3.48 12.79c-4.79 5.12-8.62 9.52-12.05 16.89-3.43 7.38-6.19 7.21-10.08 6.14s-6.76-3.43-10.47-3.6c-3.72-.17-2.31 2.42-1.69 6.14s1.35 4.79 4.28 3.77c2.93-1.01 8-1.97 10.08-.06 2.06 1.89.87 6.7-4.54 9.58a.45.45 0 0 0-.23.29c-.16.75-.99 3.48-4.41 4.09-3.7.67-5.97-4-9.91-5.18s-5.86 1.8-6.48 3.66-1.35 7.49 3.89 8.33 12.05-3.04 16.72-.79 5.57 6.48 10.7 6.36c5.12-.11 4.9 1.8.45 6.59s-9.63 9.18-13.12 15.659-4.92 7.93-11.26 4.96c-18.46-8.67-33.89-6.75-46.46-1.24-5.57 2.44-10.72 4.54-9.96-2.19.03-.22-.1-.44-.31-.5-1.55-.48-7.47-2.75-5.31-9.27.04-.13.03-.27-.04-.38-.6-.97-3.58-5.98-5.93-14.59a.47.47 0 0 0-.42-.34c-7.62-.39-9.7-9.03-21.3-26.03-1.14-1.67-3.76-.63-3.45 1.37 1.96 12.85 2.54 21.89 5.34 30.3 2.22 6.7 3.49 9.91 6.36 12.16s4.49 6.95 1.69 9.8-12.39.45-16.44-.96-16.67-4.28-19.71-7.94-3.21-11.38-.96-16.84 7.1-12.75 6.38-15.02c-.52-1.63-7.19.21-10.71-.24-4.22-.54-6.24-2.9-8.62-6.37-1.5-2.18-3.25-.34-5.07 2.57-1.99 3.18-3.01 6.59-5.41 9.09-1.69 1.77-4.63 1.98-7.17 2.05-.47.01-.62.64-.21.87 1.44.78 3.3 1.9 4.11 4.41 1.13 3.49 1.01 10.47-4.5 13.51s-24.78 8.78-30.47 10.53-21.62 9.69-25.06 6.64c-3.44-3.04-2.25-9.97-1.24-14.81s2.59-17.12 1.13-21.91-4.17-7.66-2.25-12.9c1.91-5.24 4.67-10.7 2.87-17.96s-3.51-10.96-4.15-5.55c-.73 6.25-4.43 16.28-10.95 20.75-6.33 4.34-15.54 7.66-24.44 5.12-8.9-2.53-11.49-6.48-12.73-2.93s-2.23 8.61.17 15.04c2.89 7.72 6.26 10.59 12.61 11.54 5.85.88 10.49-2.09 15.6 1.8s6.69 9.37 4.51 12.56c-1.47 2.15-5.67 3.58-9.94.22-.29-.23-.71-.02-.74.34-.41 4.11-2.2 7.25-6.61 9.4-4.61 2.25-15.43 3.43-21.29-.06s-2.87-10.81-2.14-19.09-2.31-20.22-3.6-25.62c-1.3-5.41-3.89-13.35-7.15-18.3-3.19-4.84-5.99-11.68-4.82-16.36a.43.43 0 0 0-.23-.5c-6.47-3.35-10.04-12.31-3.68-12.64 4.56-.24 10.98 1.86 15.88.25 4.85-1.59 24.68-8.93 34.34-.54.17.15.42.15.59 0 7.57-6.62 19.15-2.32 24.65 9.27.15.32.58.36.78.08 1.83-2.54 5.17-1.79 12.02-.31 10.05 2.18 13.3 1.91 17.72.15.3-.12.63.1.64.43.11 5.07.74 7.79 1.37 11.5 1.02 6.04 3.44 14.23-2.48 18.96-5.91 4.73-13.99 5.87-17.91 13.18-3.13 5.83-3.89 16.72-1.18 23.4 2.7 6.67 10.48 5.22 14.88.09 6.8-7.94 10.69-15.49 18.3-17.12 4.76-1.02 4.23-2.98 1.7-6.2-2.25-2.87 3.37-5.77 7.26-11.49 7.59-11.15 12.5-21.37 15.29-28.72s5.67-15.9 13.56-17.2c7.82-1.29 13.45.11 15.19 8.35.03.14.13.27.26.33 5.43 2.3 10.11 5.78 12.1 13.46.06.22.27.37.5.34 14.89-1.62 22.1-.44 25.11 1.53 3.38 2.21 3.42 4.49 2.9 8.21-.02.17.05.35.2.45 3.59 2.46 7.19 4.11 8.85 13.71.08.47.72.54.88.1 1.08-2.97 3.45-9.1 5.98-12.91 3.44-5.18 3.68-12.07 3.6-13.85-.18-4.16 3.03-7.26 8.51-8.42 6.71-1.42 6.07-5.21 8.61-5.04 2.53.17 4.73 5.18 3.21 14.87s-5.91 16.56-8.02 25c-2.03 8.13-4.38 21.98-4.25 30.47 0 .39.48.59.77.34 14.41-12.22 11.58-27.84 27.17-36.5.22-.12.31-.38.19-.6-.64-1.23-2.42-5.28-.97-9.87 1.82-5.74 3.63-6.97 1.71-10.41-1.68-3-1.05-6.87 1.79-8.82 2.48-1.7 4.72-1.12 5.87-.02.22.21.57.18.72-.09.67-1.19 2.67-3.89 7.37-5.1 6.14-1.58 19.31-4 23.37-4.73 3.58-.65 6.16.38 6.78 1.71.12.26.42.35.66.2 6.48-4 11.98.98 4.32 9.18zm-280.85 1.52c-3.36-1.62-8.66-1.8-10.6-.3-.98.76-.72 2 .71 2.85s-.17 2.32 1.98 3.19 7.84.5 9.84-.51 2.07-3.3-1.93-5.23m-4.55 3.14c-1.36 0-2.89-.16-3.18-1.18-.21-.75.1-1.34 1.67-1.2s4.84.4 4.85 1.65c0 .75-2.3.72-3.34.73m134.78 13.24c-.28-2.2-2.42-3.66-8.07-1.85s-7.11 3.6-6.79 6.41c.28 2.53 4.51 2.93 9.41 1.79s5.74-4.15 5.46-6.35zm-5.85 3.21c-2.5.86-5.37.8-6.11 0-1.02-1.11.29-2.38 2.26-3.01 2.27-.73 2.27-1.16 4.01-1.39 1.16-.16 2.24.39 2.5 1.28.24.83-.22 2.29-2.65 3.13z"/><path fill="#fff" d="M336.105 17.597c-.24.15-.54.06-.66-.2-.63-1.34-3.2-2.36-6.78-1.71-4.05.73-17.23 3.15-23.37 4.73-4.7 1.21-6.69 3.9-7.37 5.1-.15.26-.5.3-.72.09-1.15-1.1-3.39-1.68-5.87.02-2.84 1.95-3.47 5.81-1.79 8.82 1.92 3.44.11 4.67-1.71 10.41-1.45 4.59.33 8.64.97 9.87.11.22.02.48-.19.6-15.59 8.66-12.76 24.28-27.17 36.5-.3.25-.76.05-.77-.34-.13-8.48 2.22-22.33 4.25-30.47 2.11-8.45 6.5-15.32 8.02-25 1.52-9.69-.68-14.7-3.21-14.87s-1.9 3.62-8.61 5.04c-5.48 1.16-8.69 4.25-8.51 8.42.08 1.79-.17 8.67-3.6 13.85-2.53 3.81-4.9 9.94-5.98 12.91-.16.45-.8.37-.88-.1-1.66-9.6-5.26-11.25-8.85-13.71a.47.47 0 0 1-.2-.45c.53-3.72.48-6.01-2.9-8.21-3.01-1.97-10.22-3.15-25.11-1.53a.47.47 0 0 1-.5-.34c-1.99-7.67-6.67-11.15-12.1-13.46a.44.44 0 0 1-.26-.33c-1.75-8.24-7.37-9.64-15.19-8.35-7.89 1.3-10.77 9.85-13.56 17.2s-7.7 17.57-15.29 28.72c-3.89 5.72-9.52 8.62-7.26 11.49 2.53 3.22 3.05 5.18-1.7 6.2-7.61 1.63-11.5 9.18-18.3 17.12-4.4 5.14-12.18 6.59-14.88-.09-2.7-6.67-1.94-17.57 1.18-23.4 3.92-7.31 11.99-8.45 17.91-13.18 5.91-4.73 3.5-12.91 2.48-18.96-.63-3.72-1.26-6.43-1.37-11.5 0-.32-.34-.54-.64-.43-4.41 1.76-7.67 2.03-17.72-.15-6.85-1.49-10.2-2.23-12.02.31-.2.28-.63.24-.78-.08-5.5-11.59-17.07-15.89-24.65-9.27-.17.15-.42.15-.59 0-9.66-8.39-29.49-1.05-34.34.54-4.9 1.6-11.32-.49-15.88-.25-6.37.33-2.79 9.29 3.68 12.64.19.1.28.3.23.51-1.16 4.68 1.64 11.53 4.82 16.36 3.27 4.96 5.86 12.9 7.15 18.3 1.3 5.41 4.34 17.34 3.6 25.62-.73 8.28-3.72 15.6 2.14 19.09s16.68 2.3 21.29.06c4.41-2.15 6.2-5.29 6.61-9.4.04-.37.45-.57.74-.34 4.27 3.35 8.47 1.93 9.94-.22 2.19-3.19.61-8.67-4.51-12.56-5.11-3.89-9.75-.92-15.6-1.8-6.35-.95-9.73-3.83-12.61-11.54-2.4-6.42-1.41-11.49-.17-15.04s3.83.39 12.73 2.93c8.9 2.53 18.11-.78 24.44-5.12 6.52-4.47 10.21-14.5 10.95-20.75.63-5.41 2.34-1.71 4.15 5.55s-.96 12.73-2.87 17.96c-1.91 5.24.79 8.11 2.25 12.9s-.11 17.06-1.13 21.91c-1.01 4.84-2.2 11.77 1.24 14.81s19.37-4.9 25.06-6.64c5.69-1.75 24.95-7.49 30.47-10.53s5.63-10.02 4.5-13.51c-.81-2.51-2.67-3.62-4.11-4.41-.42-.23-.27-.86.21-.87 2.54-.06 5.48-.27 7.17-2.05 2.39-2.51 3.42-5.91 5.41-9.09 1.82-2.91 3.57-4.75 5.07-2.57 2.38 3.47 4.39 5.83 8.62 6.37 3.53.45 10.19-1.38 10.71.24.73 2.26-4.12 9.56-6.38 15.02-2.25 5.46-2.08 13.18.96 16.84s15.65 6.53 19.71 7.94c4.05 1.41 13.65 3.81 16.44.96 2.8-2.85 1.18-7.55-1.69-9.8s-4.14-5.47-6.36-12.16c-2.8-8.42-3.38-17.46-5.34-30.3-.31-2 2.31-3.05 3.45-1.37 11.6 17 13.68 25.64 21.3 26.03.2 0 .37.15.42.34 2.35 8.61 5.33 13.62 5.93 14.59.07.11.08.25.04.38-2.16 6.53 3.76 8.8 5.31 9.27.21.06.34.28.31.5-.76 6.73 4.39 4.63 9.96 2.19 12.57-5.52 28-7.43 46.46 1.24 6.34 2.98 7.77 1.52 11.26-4.96s8.67-10.87 13.12-15.66 4.67-6.7-.45-6.59-6.03-4.11-10.7-6.36-11.49 1.63-16.72.79c-5.24-.84-4.51-6.48-3.89-8.33.62-1.86 2.53-4.84 6.48-3.66 3.94 1.18 6.21 5.85 9.91 5.18 3.42-.62 4.25-3.35 4.41-4.09.03-.13.11-.23.23-.29 5.41-2.88 6.6-7.69 4.54-9.58-2.08-1.91-7.15-.96-10.08.06-2.93 1.01-3.66-.06-4.28-3.77-.62-3.72-2.03-6.31 1.69-6.14s6.59 2.53 10.47 3.6c3.89 1.07 6.65 1.24 10.08-6.14 3.44-7.38 7.26-11.77 12.05-16.89 7.66-8.2 2.16-13.19-4.32-9.18zm-274.6 15.94c-2 1.01-7.69 1.38-9.84.51s-.55-2.34-1.98-3.19-1.69-2.09-.71-2.85c1.94-1.5 7.24-1.33 10.6.3 4 1.93 3.93 4.22 1.93 5.23m122.84 17.5c-4.9 1.14-9.13.75-9.41-1.79-.31-2.81 1.14-4.6 6.79-6.41s7.79-.35 8.07 1.85-.56 5.21-5.46 6.35z"/></svg>