<svg xmlns="http://www.w3.org/2000/svg" width="1143.821" height="1270.3075" viewBox="0 0 1143.821 1270.3075"><g style="display:inline"><path d="M1112.613 398.834a88.8 88.8 0 0 0-16.613.453c-27.356 3.36-51.819 15.654-68.764 37.713-6.01 7.825-11.468 16.094-15.75 25-3.036 6.314-6.938 15.269-14.486 17.203-11.26 2.885-23.424-15.626-30-22.203-24.053-24.055-69.806-64.593-99.076-24C858.12 446.595 857 463.869 857 480c0 .574.066 1.12.072 1.691-.008.887-.072 1.792-.072 2.672 0 38.294 13.068 70.872 31.305 104 6.94 12.608 18.02 25.185 22.252 39 .566 1.85.885 3.661 1.058 5.45-.715 11.634-8.337 22.083-14.191 32.187-10.44 18.019-20.29 48.217-22.25 62-2.475 17.402 2.482 36.24-7.72 52-7.868 12.153-22.203 19.317-34.454 26.281-16.95 9.637-34.09 17.953-51.79 24.287-13.195 4.723-26.84 7.658-40.21 12.895-7.27 2.847-14.772 7.685-17.197 15.537-4.35 14.084 6.415 28.039-15.803 34.996-20.792 6.51-43.05 4.885-64.156 2.492-10.34-1.172-19.702-4.404-29.844-3.314-19.564 2.102-20.378 21.442-39 31.428-26.59 14.256-60.467 4.852-84.984 24.287-11.779 9.336-16.03 23.417-15.91 37.68-.446 7.646.499 15.482 2.373 22.794 2.052 8.012 5.215 16.41 5.794 24.647-.265 4.434-1.403 8.8-4.265 12.99-11.672 17.084-36.478 22.867-54.008 31.756-8.426 4.272-19.461 9.767-20.81 20.244-.185 1.436-.052 2.845.027 4.258-.005.037-.023.068-.028.105-2.166 16.825 14.95 32.174 24.41 44 16.38 20.475 31.452 44.059 33.31 70.992-.059 9.358-2.132 18.947-5.407 27.483-3.787 9.873-8.374 18.712-8.346 28.682-.377 2.853-.425 5.778.057 8.843 1.267 8.052 10.984 13.222 19.256 19.614 7.543 5.828 13.518 12.966 18.092 18.386 6.805 8.065 13.472 17.647 16.564 26.27 4.887 13.626 4.114 26.814 5.705 42.73 1.563 15.627 3.454 35.082 19.17 43.326 23.48 12.318 49.458-6.683 78-4.287 17.191 1.444 33.13 10.398 48 18.125 7.13 3.706 17.601 10.122 26 8.073 9.628-2.35 9.389-13.293 9.107-21.899.004-2.655-.034-5.138-.076-7.416.025-18.59.47-31.992 9.397-54.922 5.383-13.829 18.883-31.207 17.254-46-.006-.052-.033-.09-.04-.142.093-1.42.192-2.841.04-4.221-1.663-15.089-21.727-18.813-31.682-27.3-17.305-14.755-24.909-37.498-42-52.516-9.463-8.316-27.849-10.123-34.217-21.188-.293-.51-.162-1.033-.312-1.549 1.163-3.781 4.396-7.411 6.664-10.084 9.547-11.25 20.434-23.085 23.578-38 1.142-5.416 1.436-11.264 1.318-17.22.478-15.763-3.264-32.9-9.787-46.143-3.528-7.163-13.302-17.343-14.867-26.57.118-.689.108-1.396.365-2.063 2.916-7.573 13.477-10.524 20.258-13.426 15.968-6.833 34.601-12.72 47.906-24.244 14.222-12.316 5.509-33.3 14.447-48.334 10.038-16.882 30.357-20.734 44.643-32.467 11.358-9.327 16.395-23.969 24.928-35.533 9.85-13.35 24.19-22.075 40.076-26.36 7.834-2.112 17.254-3.81 25-.187 11.894 5.563 9.178 20.575 9.996 30.547.427 5.204.264 8.843.12 12.56-.391 4.403-1.106 8.141-1.96 12.036-1.659 7.573-6.465 20.03-6.197 32.756-.445 6.895.355 14.025 3.826 20.648 13.177 25.142 49.394 23.323 56.545 56 .481 2.2.735 4.466.875 6.76-.349 16.63-7.828 34.74-13.924 48.877-15.01 34.81-40.116 83.428-41.166 116.143-.44 4.711-.46 9.15.059 13.22 1.927 15.094 17.41 44.268 25.623 65 10.124 25.555 16.806 55.881 16.568 84.928-.324 9.833-1.458 19.487-3.6 28.709-7.586 32.665-23.45 63.76-42.804 91-13.094 18.43-32.57 32.13-35.672 56-.418 3.219-.44 6.24-.285 9.168-1.416 37.73 40.33 53.587 72.996 52.156 23.703-1.038 47.745-12.005 65-28.05 11.696-10.877 21.137-27.163 36-34.01 15.911-7.33 32.294 2.16 47 8.238 17.075 7.056 37.624 11.735 56 8.398 23.922-4.344 40.032-27.737 38.96-51.537-.014-.33-.123-.646-.146-.974.026-1.133.198-2.252.147-3.389-.609-13.516-7.633-26.146-11.215-39-6.006-21.552-11.384-43.668-11.61-65.938.156-7.224.833-14.46 2.313-21.699 5.816-28.45 20.73-55.835 37.838-79 5.53-7.487 20.2-20.968 18.291-31.965.382-2.192.45-4.351-.324-6.382-3.565-9.355-18.212-8.25-26.254-9.444-15.131-2.245-29.153-8.442-37.895-21.572-6.454-9.695-9.374-21.15-10.095-32.908-.173-11.197 1.32-22.517 3.884-32.729 2.58-10.271 8.603-21.891 7.75-32.894.254-3.547.025-7.06-1.193-10.469-3.8-10.632-14.114-14.578-23.451-19.246-12.154-6.077-23.736-12.241-32.7-22.754-11.778-13.815-15.576-32.614-18.724-50-2.467-13.627-4.04-27.99-4.215-42.408.217-24.526 4.775-49.034 16.926-70.229 2.797-4.879 6.281-9.759 10.752-13.238 19.13-14.886 38.599-5.806 53.52 8.473 10.526 10.074 18.014 22.581 24.915 31.765 3.873 5.154 8 10.403 12.565 14.961 6.487 6.477 14.918 12.631 23.957 14.797 18.61 4.46 41.815-2.469 56.004-14.941 9.319-8.192 16.31-21.692 29-25.053 13.542-3.588 30.638 3.914 44 6.432 27.06 5.1 62.896 3.92 85-14.522 15.615-13.029 25.943-35.335 31.115-54.674 3.073-11.49 3.474-26.154 10.522-36 13.667-19.092 40.266-21.643 57.35-37.17 22.603-20.544 32.557-63.693 34.052-97.83.284-6.476.513-12.97.275-19.443-.042-7.34-.465-14.665-2.213-21.92-4.302-17.864-14.91-33.196-30.101-43.48-8.236-5.576-25.88-9.715-28.553-20.52-.038-.151-.01-.31-.039-.463 1.27-7.893 8.92-16.257 12.53-22.174 8.1-13.278 13.341-29.41 14.023-45 .058-1.317-.058-2.502-.068-3.767.01-.198.06-.398.068-.596 2.193-50.171-45.835-62.261-82.961-79.309-16.4-7.53-38.843-19.758-49-24.601-22.722-10.835-31.151 18.528-41.52 33.91-7.986 11.849-18.71 21.942-30.48 29.97-6.967 4.753-18.426 12.174-27.309 9.38-16.168-5.087-11.961-40.149-22.332-57.35-19.846-32.918-57.078-59.643-95.746-62.166m120.826 124.354h2.704c-.915.066-1.817.083-2.704 0m-278.54 5.755c11.966.125 27.012 10.4 30.747 23.319 4.536 15.683-6.152 35.759-19.646 38.834-12.281 2.798-21.303-.154-26.607-7.407-4.934-6.745-6.505-17.025-6.39-26.689.13-10.786 5.314-24.627 16.997-27.467 1.542-.418 3.189-.607 4.898-.59m314.677 22.364c11.632.406 5.006 30.855 3.86 37.693-3.748 22.35-21.32 70.758 8.564 82.186 29.887 11.428 66.799 2.675 98 5.644 5.532.527 30.95-1.645 29.963 8.186-.944 9.41-23.813 14.653-30.963 17.705-22.103 9.433-45.485 17.437-67 28.035-9.348 4.605-19.742 10.096-23.906 20.244-4.445 10.83 2.283 21.94 7.957 31 13.402 21.402 29.019 40.699 45.195 60 4.89 5.834 20.773 20.331 18.822 28.852-1.166 5.094-9.842 2.111-13.068 1.228-12.253-3.354-24.461-9.05-36-14.31-16.393-7.473-33.107-15.206-50-21.452-8.26-3.054-17.153-6.379-26-3.525-9.242 2.98-16.866 11.785-22.572 19.207-13.638 17.738-24.49 38.608-35.578 58-4.874 8.523-12.408 26.57-22.854 29.238-9.185 2.347-9.969-13.589-9.996-19.238-.086-17.811 10.319-52.955-8.016-65.03-12.43-8.186-31.885.738-45.984-1.27-13.34-1.902-26.433-6.118-38-13.163-10.195-6.21-18.633-15.066-30-19.308-8.771-3.275-26.912.69-33.566-4.971-8.287-7.05 6.968-30.535 8.267-39.258 5.704-38.303-16.085-76.716 2.418-114 9.187-18.512 26.167-34.92 47.596-36.715 12.795-1.072 25.775 3.128 38.285-1.375 12.055-4.34 20.6-14.917 32-20.537 9.225-4.547 18.92-4.792 29-4.334 19.564.888 38.035 19.548 58 12.412 18.598-6.648 31.159-30.132 43.428-44.451 5.106-5.96 11.66-14.215 19.572-16.357.945-.256 1.8-.363 2.576-.336" style="display:inline;fill:#42a8e8;fill-opacity:1;stroke:none" transform="translate(-369.02 -374.78)"/><path d="M785 574.326c-17.993 1.422-24.627 14.57-22.854 27.467 1.894 13.774 17.97 26.785 30.854 25.88 13.296-.933 23.883-14.261 22.73-27.587-2.102-24.312-23.447-25.217-30.73-25.76" style="display:inline;fill:#42a8e8;fill-opacity:1;stroke:none" transform="translate(-369.02 -374.78)"/><path d="M824.255 1605.333c-4.41-9.365-3.516-27.776-.072-35.963 3.501-8.321 8.775-15.827 20.284-28.87 8.334-9.444 14.68-18.167 25.097-34.5 13.84-21.697 26.35-52.751 31.017-76.99 2.66-13.818 3.342-37.436 1.383-47.95-.57-3.058-1.9-10.96-2.958-17.56-4.545-28.366-7.68-38.052-24.304-75.08-4.711-10.494-9.532-21.946-10.712-25.45-2.796-8.298-3.605-21.513-2.033-33.19 1.153-8.56 7.686-30.418 12.04-40.28.97-2.2 3.337-7.6 5.259-12 4.066-9.311 16.423-36.254 17.708-38.61 1.373-2.517 11.614-28.822 13.389-34.39 5.934-18.617 7.074-32.886 3.477-43.536-1.835-5.435-3.337-7.582-9.755-13.944-6.092-6.038-9.715-8.604-18.384-13.02-16.383-8.345-24.361-16.4-29.712-30-2.93-7.447-2.996-19.83-.147-27.809 6.458-18.088 6.674-19.408 6.574-40.191-.102-21.004-.915-26.074-4.946-30.865-2.875-3.417-8.99-5.238-14.742-5.118-3.058.12-5.966-.044-8.969.465 0 0 1.085 10.376 1.757 17.959 1.417 15.999 2.422 22.308-1.863 36.591-5.498 18.327-5.885 21.212-5.288 28.968 1.304 16.961 12.874 33.844 33.09 44.51 24.326 12.834 29.92 23.573 26.69 44.638-2.563 16.727-11.611 40.148-23.531 65.272-20.359 42.91-27.815 63.379-30.79 83.559-2.684 18.2.498 29.919 15.417 61.969 9.985 21.45 15.633 39.897 19.329 56.903 3.38 15.55 2.106 43.573 2.106 53.879 0 17.879 1.382 40.154-6.844 60.807-10.622 26.667-27.964 55.786-44.213 73.766-15.774 17.455-20.886 28.302-22.885 41.487-2.943 19.414 6.952 40.456 24.734 49.998 7.966 4.275 22.853 7.798 24.847 7.902-8.47-5.704-15.501-9.453-22.05-23.357m-282.246-172.03c-.187-.412-3.703-6.053-5.148-8.803-4.568-8.691-6.851-20.69-8.372-44-2.187-33.508-12.19-50.696-44.661-76.734-12.387-9.933-14.356-13.011-14.241-22.266.07-5.683.789-8.694 3.818-16 4.828-11.647 8.27-21.232 8.977-25 3.36-17.899-.14-37.094-10.549-57.855-5.976-11.92-10.384-18.161-28.463-40.301-10.652-13.045-14.626-19.625-16.709-27.664-3.315-12.798 3.55-19.95 30.839-32.128 25.62-11.433 34.754-16.66 40.45-23.148 8.892-10.127 9.689-19.25 3.442-39.404-3.088-9.966-7.571-30.13-.193-47.021 5.541-12.687 15.343-20.162 29.801-24.839 3.575-1.157 16.175-3.473 28-5.147s23.75-3.752 26.5-4.615c13.457-4.225 21.508-10.134 28.8-21.141 2.455-3.705 5.535-7.728 6.845-8.94 6.344-5.865 17.376-7.92 37.291-5.524 29.544 3.554 64.266 3.757 73.978-.302 9.442-3.945 15.07-13.115 13.275-24.192-.806-4.98-.366-12.896 6.414-18.753 4.328-3.74 14.05-8.755 19.983-10.027 18.638-3.999 67.843-24.304 85.677-35.357 23.751-14.721 28.494-18.606 33.827-27.705 4.136-7.058 5.507-14.354 5.907-31.437.2-8.525.868-18.627 1.484-22.448 2.89-17.922 14.44-47.145 25.742-65.132 7.07-11.251 10.278-19.681 10.273-26.998-.004-6.898-1.102-9.32-14.47-31.922-13.224-22.358-15.747-26.913-21.877-39.5-14.255-29.268-19.49-53.973-18.33-86.5.77-21.543 4.628-33.663 14.055-44.15 6.685-7.434 11.134-10.066 19.985-11.916 7.616-1.592 14.326-.37 21.735 1.145 0 0-6.47-5.065-9.817-6.825-22.07-11.601-45.387-8.504-58.057 8.276-4.124 5.463-10.054 14.702-11.868 21.436-3.947 14.66-2.737 49.985 2.027 70.013 5.651 23.76 14.036 44.801 37.718 84.6 11.371 19.111 12.416 19.094 12.321 26.421-.096 7.427-3.62 13.473-10.395 24.537-11.611 18.966-20.957 47.362-24.107 65.599-.843 4.885-1.973 15.643-1.977 22.309-.017 27.317-4.145 36.07-21.95 47.73-28.879 18.913-55.66 28.479-91.975 43.296-10.164 4.147-21.62 5.748-29.958 12.05-5.16 4.355-6.87 11.022-7.495 23.42-.486 9.624-.581 9.736-2.736 12.935-6.512 9.67-21.757 10.983-56.957 9.673-16.908-.63-34.739-4.499-49.286-2.448-10.34 1.637-14.882 4.68-22.738 16.24-10.21 15.023-18.958 19.708-48.461 23.667-27.929 3.75-39.867 6.653-49.173 13.056-12.178 8.378-21.881 25.547-21.816 41.514.023 5.836 2.134 14.2 6.607 30.231 5.391 19.325 6.116 25.657-4.146 35.204-6.244 5.81-13.9 8.109-31.36 15.978-21.023 9.474-30.257 16.82-34.864 22.054-4.921 5.591-5.642 12.244-3.58 19.317 2.243 7.698 7.51 14.917 21.559 32.272 19.3 23.84 24.976 35.433 30.826 54.454 2.396 7.789 1.892 9.714 1.824 22.72-.083 15.872.249 18.258-8.054 38.285-4.708 11.356-4.618 20.987-1.78 27.402 1.577 3.566 4.943 7.113 15.181 15.468 21.148 17.259 31.049 30.574 36.166 45.73 2.196 6.506 3.602 19.83 5.062 37.77 2.32 28.518 10.995 41.791 23.85 47.873 5.521 2.612 12.597 4.786 15.324 3.468m606.614-443.053c-5.47-5.41-16.399-19.373-26.908-34.378-14.507-20.713-31.758-27.57-46.154-28.149 0 0 6.3 7.298 9.43 10.252 3.062 2.888 9.306 8.001 11.537 11.301 13.123 19.407 28.705 37.202 37.06 42.973 5.03 3.474 19.906 6.16 22.89 6.195-1.429-1.601-3.421-3.809-7.855-8.194m30.84-43.118c5.162-4.294 12.654-15.036 21.014-30.132 3.197-5.775 7.837-13.65 10.31-17.5 7.369-11.472 8.823-13.807 11.213-18 12.687-22.256 22.585-33.452 34.284-38.777 8.194-3.73 12.13-1.382 24.968-.552 0 0-11.701-5.982-17.614-8.33-14.002-5.56-25.126-5.63-32.359-2.13-7.944 3.843-20.691 16.835-29.365 30.999-4.205 6.864-11.195 16.742-14.2 21.417-3.006 4.675-8.937 13.717-13.447 21.692s-8.58 15.234-7.042 17.434c-.355 9.566-1.38 14.538 1.089 19.957 3.073 6.746 6.217 8.022 11.148 3.922zm203.345-64.882c.483-.962-.314-3.82-.64-5.032-.982-3.646-9.179-14.847-22.623-30.623-23.177-27.195-43.373-56.263-48.282-69.492-.693-1.868-1.315-5.918-1.383-9-.317-14.372 7.83-21.33 39.836-34.023 8.202-3.252 23.658-9.717 34.348-14.365s22.586-9.69 26.436-11.205c15.513-6.104 23.07-11.235 22.34-15.17-.487-2.634-8.358-6.008-15.185-6.668-23.26-2.251-18.62-1.971-36.382 7.05-4.201 2.135-10.491 7.002-22.107 11.979s-28.608 11.022-37.227 14.502c-21.37 8.627-27.09 11.672-33.314 17.737-8.293 8.08-7.416 23.39-1.959 35.312 6.034 13.18 27.044 43.344 48.344 68.386 1.907 1.936 25.937 29.953 19.15 30.074-2.888-.023-11.33-1.75-11.33-1.75 9.098 4.523 16.562 7.862 25.17 10.898 9.937 3.509 13.573 3.85 14.808 1.39m-249.963-19.188c4.04-.468 10.59-1.479 11.09-1.98.548-.547-.953-3.784-2.776-5.648-4.84-4.951-12.48-7.67-28.83-5.775-10.731 1.244-15.104 2.022-20.91 1.215-6.29-.875-15.14-2.34-15.14-2.34 8.227 8.432 19.959 11.628 31.221 13.98 8.316 1.55 15.368 1.703 25.345.547m164.3-186.566s-5.084-6.417-6.232-8.667c-4.087-8.01-3.705-19.356 1.576-46.829 4.113-21.396 5.585-32.685 5.806-44.532.17-9.11-.064-11.532-1.568-13.75-4.556-6.722-12.124 1.193-18.824 6.739-4.095 3.388-7.814 7.41-7.814 7.41s-1.947 20.736-5.395 38.66c-2.525 13.125-3.207 18.044-2.903 26.924.338 9.86.394 15.926 3.161 20.402 3.297 5.333 11.633 10.444 17.085 11.93 3.97 1.083 15.107 1.713 15.107 1.713m-509.108-54.099c-5.53-8.72-5.036-22.302 1.081-29.725 6-7.74 14.732-8.86 23.654-9.534l-7.602-5.82c-6.261-4.794-13.314-6.776-21.905-6.23-14.625.929-26.064 13.885-26.064 28.801 0 10.474 8.495 21.93 19.047 27.334 4.237 2.169 18.151 3.4 18.151 3.4s-3.483-3.686-6.362-8.226M991.5 599.651c5.572-2.596 10.8-8.391 14.57-16.151 3.03-6.234 4.186-21.34-.211-28-7.396-12.298-20.91-18.29-34.62-20.579l6.899 7.958s5.015 7.67 4.989 16.794c-.02 6.979-.813 9.07-2.929 13.689-4.352 9.5-14.264 14.712-20.412 14.712.163 1.854 1.676 5.072 4.575 7.796 6.367 5.981 18.722 7.703 27.139 3.78m276.546-74.092c13.242-5.38 29.561-18.71 39.882-32.573 3.077-4.133 8.249-12.233 11.493-18 12.153-21.6 15.647-22.513 29.415-21.915 0 0-7.715-6.379-12.91-8.88-18.066-8.7-31.286-3.505-43.992 19.055-3.8 6.747-14.547 14.787-17.521 17.56-30.338 28.283-33.016 25.94-35.706 32.331 1.22 2.182 6.259 8.092 8.661 10.495 5.502 6.346 13.61 4.648 20.678 1.927m-245.16-38c3.49-1.805 6.65-6.098 11.081-15.059 11.604-23.463 29.776-43.74 46.533-51.923 9.578-4.677 23.652-8.657 32.192-10.516 19.88-4.328 40.437.772 49.728 3.22-6.386-6.778-12.49-9.015-19.972-11.745-26.27-9.588-55.312-8.478-82.755 3.643-11.362 5.018-28.742 20.445-38.398 33.58-13.327 18.13-13.134 19.444-22.405 37.287l5.896 6.227c6.478 6.842 12.424 8.221 18.1 5.286" style="display:inline;fill:#fff" transform="translate(-369.02 -374.78)"/><path d="M1105 375.424c-27.671 3.633-51.514 11.541-74 28.811-12.4 9.524-24.46 29.72-40 33.4-19.11 4.524-34.35-15.047-49-23.623-17.226-10.085-34.983-14.815-51-11.291-17.616 3.876-33.127 17.413-43.514 37.279-19.59 37.469-15.316 90.918.375 129 8.527 20.695 23.082 39.195 28.66 61 3.883 15.174-2.263 28.85-7.177 43-6.407 18.452-13.108 36.817-17.058 56-4.039 19.607-3.124 36.917-17.46 53-23.055 25.866-63.396 44.538-97.826 47.83-14.707 1.406-35.502-5.625-48.985.175-8.67 3.73-6.614 13.548-6.104 20.995.97 14.163-2.827 22.69-17.911 24.558-21.397 2.65-46.395-5.124-67-10.184-9.03-2.217-24.23-6.65-32.811-1.234-7.008 4.423-4.355 11.575-.402 16.823 3.336 4.43 7.421 7.058 9.204 10.038 5.142 8.598-.465 17.934-7.006 23.814-14.411 12.955-33.088 12.13-51.744 12.777-23.214.807-46.228 3.22-58.982 29.408-7.856 16.131-4.886 34.174-1.244 51 2.599 12.008 7.028 25.687-.148 37-10.882 17.153-39.646 22.895-57.867 28.141-12.461 3.588-25.791 10.18-26.906 24.859-1.145 15.075 11.146 27.24 20.906 37 19.786 19.787 49.64 37.979 50.96 69 .757 17.78-7.733 36.87-16.387 52-4.445 7.77-14.012 17.471-13.178 27 .73 8.34 8.829 11.838 15.605 14.551 13.399 5.365 27.574 10.4 37.331 21.619 20.255 23.288 11.254 57.937 15.248 85.83 2.185 15.257 7.517 31.428 22.421 38.865 23.837 11.894 50.647 1.011 80.835 1.277 27.62.243 40.032 3.1 92.165 36.163 10.689 6.779 28.466 13.935 38.772 2.59 6.528-7.186 1.515-18.97-1.127-26.895-5.815-17.445-16.844-37.665-8.102-56 5.777-12.116 18.471-19.298 23.388-32 5.788-14.952.836-31.87 9.537-46 7.215-11.715 28.194-25.933 22.267-41.996-4.671-12.66-29.818-7.669-40.735-10.24-23.596-5.558-39.604-26.358-59-39.434-8.197-5.525-18.386-12.474-18.956-23.33-.982-18.712 13.762-35.65 16.667-54 5.046-31.89-17.677-58.558-2.088-81 13.596-19.572 41.328-20.651 54.947-39 8.515-11.472-2.515-27.36 2.963-40 7.382-17.034 27.642-18.9 41.467-28.105 15.19-10.115 19.185-29.788 31.174-42.88 4.96-5.418 12.99-11.84 20.826-8.863 9.204 3.496 11.957 14.02 12 22.848.084 17.504-6.22 36.783-2.101 54 3.194 13.348 10.911 24.992 19.213 35.291 9.647 11.969 19.138 22.704 23.219 37.709 6.288 23.117-12.69 77.139-29.397 104-9.694 15.587-21.866 28.217-27.855 46-9.684 28.75 6.28 46.437 16.674 69 12.784 27.75 39.536 73.808 39.247 113-.29 39.214-17.621 113.46-60 142.78-7.156 4.951-16.169 8.582-25 6.702-7.497-1.596-21.095-10.79-26.86-1.373-8.85 14.455 5.206 37.827 13.875 48.891 26.966 34.418 69.714 53.858 112.985 51.96 21.166-.928 43.33-10.028 59-24.13 13.862-12.475 25.777-30.855 44-37.282 17.7-6.243 35.578 4.43 52 9.782 28.701 9.353 64.79 9.063 92-4.97 12.317-6.353 24.396-15.133 27.764-29.36 5.63-23.777-15.23-51.336-26.34-71-16.18-28.641-23.678-56.612-15.529-89 10.421-41.42 45.935-69.404 65.644-106 8.03-14.91 16.932-38.511 7.903-54.941-6.859-12.481-21.457 9.317-26.442 13.767-19.506 17.414-49.674 16.776-60.546-9.826-9.74-23.829-4.195-50.978 9.625-72 5.574-8.48 23.996-22.174 22.649-32.985-.906-7.271-10.17-7.856-15.728-9.442-14.516-4.143-28.797-10.278-40-20.663-28.082-26.032-38.649-72.063-42.075-108.91-1.286-13.835-2.391-29.908 3.424-43 12.92-29.09 42.293-11.048 58.636 3.425 12.937 11.456 21.322 27.133 35.015 37.906 24.491 19.267 57.074 21.19 85 8.807 19.743-8.754 33.953-21.111 56-24.548 15.722-2.45 32.152.406 48-.68 22.299-1.527 42.925-9.94 60-24.349 13.014-10.981 22.562-24.746 30.124-38.5 6.825-12.415 11.745-24.762 21.2-36.061 16.683-19.934 40.42-32.926 57.238-53 27.225-32.497 34.19-84.952 30.268-126-1.792-18.753-5.852-37.92-13.95-55-7.057-14.883-18.295-27.51-21.865-44-2.791-12.89 1.6-24.435 3.7-37 2.549-15.262 2.607-32.348-2.77-47-16.962-46.226-77.473-52.332-112.945-78.895-7.839-5.87-15.147-12.54-21.385-20.105-5.16-6.257-10.403-14.8-18.615-17.347-12.929-4.011-20.548 12.944-24.572 22.347-9.15 21.377-31.009 64.417-58.428 56.058-21.292-6.491-31.074-40.893-41.45-58.058-18.347-30.35-58.46-52.314-94.55-47.576m-9 23.862c44.288-5.44 89.679 24.093 112.36 61.714 10.37 17.201 6.164 52.263 22.332 57.35 8.882 2.794 20.341-4.627 27.308-9.379 11.77-8.028 22.493-18.122 30.48-29.971 10.368-15.382 18.798-44.744 41.52-33.91 10.157 4.844 32.6 17.07 49 24.601 37.126 17.048 85.154 29.138 82.96 79.309-.68 15.59-5.92 31.722-14.022 45-4.357 7.143-14.751 17.863-12.49 27 2.674 10.805 20.317 14.944 28.552 20.52 15.192 10.284 25.798 25.616 30.101 43.48 2.944 12.223 2.48 24.643 1.938 37-1.495 34.137-11.45 77.285-34.054 97.83-17.083 15.526-43.68 18.077-57.348 37.17-7.047 9.846-7.449 24.509-10.522 36-5.172 19.339-15.5 41.646-31.115 54.674-22.104 18.443-57.94 19.621-85 14.522-13.362-2.518-30.457-10.02-44-6.432-12.69 3.361-19.681 16.86-29 25.052-14.19 12.472-37.394 19.4-56.004 14.942-9.039-2.166-17.47-8.32-23.957-14.797-4.565-4.558-8.691-9.808-12.564-14.961-6.901-9.184-14.39-21.691-24.917-31.766-14.92-14.279-34.389-23.359-53.519-8.473-4.47 3.479-7.954 8.36-10.751 13.239-20.02 34.919-19.624 78.826-12.712 117 3.148 17.386 6.946 36.186 18.725 50 8.964 10.513 20.546 16.676 32.699 22.753 9.337 4.669 19.65 8.615 23.451 19.247 4.542 12.702-3.493 26.807-6.556 39-5.605 22.319-7.16 49.917 6.21 70 8.742 13.13 22.764 19.327 37.895 21.573 8.043 1.193 22.689.087 26.254 9.442 4.31 11.308-12.1 26.04-17.968 33.985-17.108 23.165-32.02 50.55-37.836 79-6.343 31.027.95 62.054 9.295 92 3.582 12.854 10.607 25.484 11.216 39 1.071 23.8-15.038 47.193-38.961 51.537-18.376 3.337-38.925-1.342-56-8.398-14.706-6.077-31.089-15.568-47-8.238-14.863 6.848-24.304 23.133-36 34.01-17.255 16.045-41.297 27.012-65 28.05-34.036 1.49-78.07-15.719-72.71-56.961 3.101-23.87 22.576-37.57 35.67-56 19.355-27.24 35.218-58.335 42.805-91 8.753-37.686 1.106-82.471-12.969-118-8.213-20.733-23.695-49.906-25.622-65-4.112-32.202 24.706-86.964 41.107-125 7.489-17.367 17.258-40.77 13.05-60-7.15-32.677-43.37-30.858-56.546-56-9.088-17.339-.004-38.193 2.372-49.04 1.74-7.945 2.974-15.136 1.84-28.96-.82-9.972 1.896-24.985-9.998-30.547-7.746-3.623-17.165-1.925-24.999.187-15.886 4.284-30.225 13.01-40.076 26.36-8.532 11.564-13.57 26.205-24.928 35.532-14.286 11.733-34.605 15.586-44.643 32.468-8.939 15.033-.225 36.017-14.446 48.334-13.305 11.523-31.939 17.412-47.907 24.245-6.78 2.901-17.341 5.851-20.258 13.425-4.072 10.576 10.128 24.117 14.502 32.996 8.35 16.954 12.392 40.393 8.47 59-3.144 14.915-14.032 26.75-23.58 38-3.448 4.063-9.633 10.294-6.352 15.996 6.369 11.065 24.755 12.873 34.218 21.188 17.092 15.02 24.696 37.76 42 52.515 9.955 8.488 30.02 12.212 31.681 27.301 1.63 14.793-11.87 32.171-17.254 46-9.436 24.24-9.427 37.649-9.427 58 0 8.683 2.287 23.483-9 26.237-8.4 2.049-18.87-4.368-26-8.073-14.87-7.728-30.808-16.681-48-18.125-28.542-2.396-54.52 16.605-78 4.287-15.716-8.244-17.607-27.699-19.169-43.326-1.591-15.917-.82-29.105-5.706-42.73-3.092-8.623-9.759-18.206-16.564-26.27-4.574-5.42-10.55-12.558-18.093-18.387-8.271-6.391-17.987-11.562-19.254-19.613-1.878-11.932 3.936-21.814 8.289-33.162 3.783-9.863 6.143-21.152 5.407-31.838-1.855-26.937-16.928-50.523-33.31-71-9.461-11.827-26.578-27.175-24.411-44 1.35-10.477 12.385-15.971 20.811-20.244 17.53-8.89 42.336-14.673 54.008-31.757 9.066-13.27 2.003-28.212-1.53-41.999-4.992-19.483-3.393-42.692 13.537-56.112 24.517-19.435 58.396-10.03 84.985-24.287 18.622-9.985 19.436-29.325 39-31.427 10.142-1.09 19.503 2.142 29.844 3.315 21.107 2.393 43.364 4.017 64.156-2.494 22.218-6.957 11.454-20.91 15.803-34.995 2.425-7.852 9.927-12.69 17.197-15.536 13.37-5.237 27.014-8.172 40.21-12.895 17.7-6.335 34.84-14.652 51.79-24.288 12.25-6.965 26.585-14.128 34.452-26.281 10.203-15.76 5.246-34.597 7.722-52 1.96-13.783 11.81-43.981 22.25-62 7.456-12.867 17.954-26.261 13.133-42-4.232-13.815-15.311-26.393-22.251-39C870.069 550.871 857 518.294 857 480c0-16.131 1.12-33.404 10.924-47 29.27-40.592 75.023-.055 99.076 24 6.576 6.577 18.74 25.089 30 22.204 7.548-1.935 11.45-10.89 14.485-17.204 4.282-8.906 9.74-17.175 15.75-25 16.945-22.06 41.41-34.354 68.765-37.714M950 529.533c-11.683 2.84-16.867 16.681-16.996 27.467-.116 9.664 1.455 19.943 6.388 26.689 5.305 7.253 14.327 10.206 26.608 7.407 13.494-3.075 24.181-23.15 19.646-38.834-4.27-14.763-23.312-26.076-35.646-22.729m5 14.81c3.617-.724 7.41-.46 10.31 1.163 11.64 6.509 15.493 28.29-.31 31.957-18.807 4.363-31.245-28.867-10-33.12m312 7.3c-7.912 2.142-14.465 10.397-19.572 16.357-12.269 14.32-24.83 37.804-43.428 44.451-19.965 7.137-38.436-11.524-58-12.412-10.08-.457-19.775-.213-29 4.335-11.4 5.62-19.945 16.196-32 20.536-12.51 4.503-25.49.304-38.285 1.375-21.43 1.796-38.408 18.203-47.595 36.715-18.503 37.285 3.285 75.697-2.42 114-1.298 8.723-16.552 32.208-8.266 39.258 6.655 5.661 24.795 1.697 33.566 4.971 11.367 4.243 19.805 13.098 30 19.307 11.567 7.045 24.66 11.263 38 13.164 14.1 2.009 33.554-6.917 45.985 1.27 18.334 12.074 7.93 47.219 8.016 65.03.027 5.65.81 21.586 9.996 19.238 10.446-2.669 17.98-20.715 22.853-29.238 11.087-19.392 21.94-40.262 35.578-58 5.707-7.422 13.33-16.227 22.572-19.208 8.847-2.853 17.74.473 26 3.527 16.893 6.246 33.607 13.977 50 21.45 11.539 5.26 23.747 10.956 36 14.31 3.226.883 11.902 3.868 13.068-1.227 1.95-8.52-13.933-23.018-18.822-28.852-16.176-19.302-31.794-38.598-45.196-60-5.673-9.06-12.401-20.17-7.956-31 4.165-10.148 14.558-15.639 23.906-20.244 21.515-10.598 44.897-18.603 67-28.036 7.15-3.051 30.019-8.294 30.963-17.705.987-9.831-24.431-7.658-29.963-8.185-31.201-2.97-68.113 5.784-98-5.645-29.884-11.427-12.313-59.835-8.565-82.185 1.223-7.294 8.682-41.451-6.435-37.357m-495 12.821C749.617 568.5 739.673 597 750.532 616c8.671 15.172 31.646 23.568 48.468 20.536 22.325-4.025 35.55-35.53 23.034-54.532-9.773-14.836-33.41-20.537-50.034-17.54m13 9.862c7.283.543 28.628 1.447 30.73 25.759 1.153 13.326-9.433 26.656-22.73 27.59-12.884.904-28.959-12.109-30.853-25.882-1.773-12.898 4.86-26.046 22.853-27.467m456.996 33.127c9.177-.869 8.219 12.744 7.965 18.547-.757 17.284-8.813 44.472 9.043 56.03 14.799 9.58 39.17 5.11 55.996 7.89 6.124 1.012 17.082 2.017 19.353 9.095 2.823 8.795-10.22 14.933-16.353 17.558-16.856 7.214-48.603 9.335-55.74 29.427-6.625 18.65 21.039 43.92 30.407 58 3.323 4.994 10.228 13.468 8.726 19.957-2.525 10.906-19.994 4.426-26.393 1.978-13.992-5.351-32.497-19.686-48-11.935-17.01 8.505-26.489 33.45-35.8 49-3.92 6.546-9.406 18.196-18.2 18.801-8.85.61-10.82-11.192-10.985-17.801-.35-14.026 1.77-28.046 1.05-42-.284-5.522-1.47-12.17-7.08-14.78-4.168-1.94-8.56.93-11.985 3.128-8.548 5.488-16.044 12.45-25 17.34-21.514 11.744-44.812 8.73-65-4.124-10.736-6.836-25.815-15.172-32.095-26.564-8.859-16.072 3.52-31.855 1.925-48-1.218-12.325-9.1-22.781-13.623-34-6.322-15.68-4.613-32.67 4.659-47 3.194-4.938 7.165-8.761 12.134-11.907 13.517-8.555 30.629-8.86 45-2.665 7.612 3.282 19.241 13.787 27.996 9.392 7.635-3.832 9.162-13.554 11.7-20.82 4.28-12.259 10.95-22.505 24.304-25.76 17.152-4.183 28.025 6.152 40 16.929 6.885 6.196 14.808 14.416 25 13.606 13.601-1.08 20.99-15.548 27.203-25.775 3.091-5.088 7.078-12.912 13.793-13.547" style="display:inline;fill:#000;stroke:none" transform="translate(-369.02 -374.78)"/></g></svg>