<svg xmlns="http://www.w3.org/2000/svg" width="131.481mm" height="38.467mm" viewBox="265.4275 165.2053 131.481 38.467"><path d="m299.114 334.191.077-2.511.012-.726.433.281.582.352.582.353 1.077-1.191c3.14-3.472 5.364-7.146 6.166-10.186 1.018-3.989.556-8.418-1.358-12.051-1.035-1.969-2.606-3.957-3.128-3.957h-.335l-1.689 1.985a29 29 0 0 1-1.489 1.64c-.218.217-.808.629-.852.629a14 14 0 0 1 0-.88c-.126-.328-.729-1.221-1.339-1.985-.478-.502-.804-.983-1.389-1.537-.153-.082-1.116.919-2.049 1.86l-1.697 1.712.58 1.162.58 1.161v14.026c-.529.55-1.024 1.037-1.531 1.553.513.49 1.21 1.227 1.531 1.5v9.472c.922-.003 1.844-.046 2.765-.075l2.394-.076zm1.564-9.335-1.509-1.403v-10.931l.613-.711.612-.712c2.301.848 3.262 5.192 3.593 7.311.238 2.699.435 5.858-1.668 7.896zm88.808 5.823c1.394-1.907 7.168-11.852 5.046-20.252-.745-2.951-1.502-4.082-3.871-6.004l-.568.783c-.313.43-1.074 1.335-1.693 2.011-.618.677-1.124 1.383-1.124 1.57 0 .365 2.768 2.673 3.923 6.484 1.324 4.368-.429 8.469-1.072 9.336 0 0-2.385-4.328-3.023-7.722-.361-1.924-.89-9.283-.96-10.874l-.059-1.323-.397.036c-.218.02-1.29.272-2.381.561l-1.985.526-.083 2.481c-.062 1.865.037 3.68.221 5.524.728 7.275 2.608 13.232 5.324 16.867l1.038 1.389.315.41.329-.418zm-31.903-2.262c.293.617 1.133 1.323 1.539 1.774l1.215 1.352.349.367.454-.367 1.492-1.357c.821-.747 1.541-1.561 1.708-1.727l.426-.423c-.61-.648-.859-.93-1.303-1.715v-17.489l-.015-.633-.33-.266-2.763-1.821c-1.52-1.002-2.859-1.821-2.977-1.821-.186 0-5.82 4.551-6.759 5.821h5.46c.668 0 1.055.916 1.299 1.556 0 .141-.662.636-1.471 1.098s-2.159 1.479-3 2.258c-1.556 1.122-2.543 2.729-3.181 4.515-.411 1.212-.647 2.509-.626 3.79.018 1.038.279 2.071.611 3.055.484 1.661 1.387 3.037 2.677 4.163.693.693 1.371 1.26 1.507 1.26 1.361-1.155 2.466-2.152 3.688-3.39m-1.734-3.294c-1.523-1.718-1.716-3.787-1.382-5.955.152-.961.402-1.941.898-2.779.444-.751 1.15-1.945 1.796-1.904.646.04.746 1.019.746 1.019v8.861c-.133 1.101-.58 2.443-2.058.758m65.486 4.508c2.05-2.04 2.128-2.216 2.493-2.817-.364.038-.713-.081-1.065-.159-1.875-.558-3.136-2.016-4.255-3.529-.731-.974-1.331-1.914-1.332-2.09-.001-.177 1.486-2.011 3.305-4.077s3.307-3.876 3.307-4.022-1.093-2.212-2.43-4.589l-2.429-4.322c-.046-.082-.175-.297-.175-.297s-1.101.846-1.453 1.161c-1.549 1.388-3.278 4.109-4.004 5.626-.149.246-2.755 4.669-1.249 11.317.349 1.542 2.101 7.549 6.688 9.974 0 0 1.866-1.447 2.599-2.177zm-5.195-18.461c.281 0 1.486 1.869 2.004 3.11.657 1.111 0 1.958-.757 2.861l-.798.908-.701.687c-1.854-4.594-.067-7.566.252-7.566m-84.491 3.852.068-16.125.008-.511-.437.082-2.5.409c-1.374.225-2.77.522-3.102.661l-.678.176c.23.537.706 1.066.905 1.613.075.29.115 1 .115 1l.066 13.738c.038 8.003.125 14.705.194 14.892l.024.341 2.685-.076 2.584-.076z" style="stroke-width:.264583" transform="translate(-26.92 -133.18)"/></svg>