<svg xmlns="http://www.w3.org/2000/svg" width="138.227mm" height="216.793mm" preserveAspectRatio="none" viewBox="234.7526 90.8503 138.2268 216.793"><path d="M264.67 439.963c.263-.83 3.403-11.958 3.968-14.061l.276-1.03-.257-.479c-.141-.264-.85-1.254-1.576-2.202-.604-.769-1.099-1.611-1.583-2.457 0 0 .669.387.872.488l3.297 1.652c2.148 1.076 4.678 2.281 5.622 2.679 1.414.853 2.178.616 3.701.262 2.388-.556 2.774-.736 3.969-1.856.221-.208.479-.43.758-.658 1.392-1.133 3.306-2.38 3.731-2.38.239 0 1.418.476 2.622 1.058s2.316 1.058 2.471 1.058c.281 0 5.144-2.663 7.637-4.126 1.006-.59 1.9-1.232 1.978-1.239l-.779.074c-1.029 0-13.61 1.845-14.251 2.09 0 0-.357.079-.728.278-.37.199-1.42 1.012-1.42 1.012s2.075-2.475 2.777-3.512l1.357-1.943-.328-1.738-.328-1.738s-.121-.518-.071-.647c.05-.13.37-.132.37-.132l.875.036 3.053.125 3.928.161 1.31-.416c2.777-.884 10.479-2.335 15.057-2.844 1.139-.126 2.119.064 2.855-.819 1.059-1.095.189-3.07-.245-4.303-.766-2.118-1.947-4.183-2.82-6.194-1.94-4.468-3.681-8.51-3.868-8.983a47 47 0 0 1-.363-.947s-.54.011-.867.006c-1.165-.018-3.219.068-3.947-.059-2.513-.442-4.176-2.448-5.66-4.371l-1.665.557c-.916.307-3.731 1.619-6.256 2.917-2.524 1.298-4.787 2.355-5.027 2.349l-.437-.011 1.059-.94c.582-.517 2.546-2.105 4.365-3.53s3.816-3.065 4.438-3.644c0 0 1.059-.738 1.129-1.053.085-.378-1.623-1.677-3.055-2.69-1.52-1.076-2.957-2.17-3.193-2.43l-.429-.475s-.292-.38-.192-.545c.033-.054.107-.082.191-.094.582-.002 1.165.104 1.744.172.745.088 3.751.757 6.68 1.488s5.851 1.402 6.496 1.49l1.172.161 4.747-3.181 4.746-3.18.308.307c.169.169 1.169 2.39 2.221 4.937 2.69 6.507 5.38 12.307 6.216 13.403l.711.932.961-.179c.528-.099 3.052-1.002 5.609-2.008s4.83-1.829 5.052-1.829c.657 0 1.216.82 2.361 3.46.594 1.371 2.849 5.886 5.011 10.034 3.834 7.354 5.702 12.106 5.702 12.106s-.884-1.022-5.891-9.043c-1.225-1.747-2.153-3.762-3.654-5.298l-.069 16.36-.068 16.11v.721h22.494v-9.106c1.38.068 6.163 1.859 6.284 1.924.392.212.696.232.595.719 0 .388-1.141 2.664-3.4 5.627a338 338 0 0 0-2.651 3.506l-.547.767c.694-.337 1.321-.754 1.94-1.221 1.841-1.402 4.92-4.032 6.675-5.774 0 0 1.987-1.81 2.414-2.395.426-.585 1.192-1.824.564-2.45-.168-.168-1.234-.438-2.791-.87-1.585-.44-3.535-.953-4.982-1.307l-3.969-.973-.067-25.577-.068-25.576.2.007c.11.004 1.503.955 3.097 2.114l2.896 2.107.458-.328c1.059-.759 10.934-12.783 14.95-18.202 10.357-13.978 14.829-24.414 16.376-38.218l.385-3.439-.003-4.101-.003-4.102-.383-3.771c-1.606-15.783-6.901-28.219-16.33-38.357-1.627-1.613-1.303-1.518-2.507-2.65l1.49.196c.281.037 1.905.182 3.603.405l3.088.405s.565.075.726.023c.162-.051.241-.33.241-.33l.165-1.244c.424-3.192 1.25-7.601 1.817-9.83.66-3.028.443-3.535 3.615-3.255l2.105.064h.139a5 5 0 0 0-.542-.719c-1.339-1.486-5.626-5.626-6.784-6.491l-1.233-.922-1.774-.19c-9.415-.976-11.809-5.576-11.932-6.255-.201-1.109.69-2.01 1.545-2.896.769-.798 1.577-1.678 1.795-1.958l.397-.508-1.148.64c-.461.258-5.07 3.325-5.07 5.566.153 1.139 1.404 2.015 7.146 5.68 0 0 4.204 2.515 5.368 3.427 1.258 1.095 2.416 2.295 3.626 3.446 0 0 .354.288.354.472s-.354.63-.354.63l-1.039 1.608c-1.151 1.779-3.158 4.152-7.551 8.925-1.608 1.746-6.424 7.253-10.702 12.237s-7.879 9.062-8.002 9.062h-.223v-8.719h-.7l-6.992.03s-5.38.203-6.992.031-8.005-1.468-9.79-2.215-3.175-1.543-4.762-2.315l-.419-.218.041.581c.045.633.17 2.005.298 2.995.149 1.153.359 2.294.704 3.425.273.894.805 2.135 1.172 2.761.449 1.046 1.269 1.703 2.081 2.463.778.729 1.746 1.562 2.152 1.852l.737.527-.076 2.907-.076 2.906-.926-1.232c-.509-.677-1.264-1.435-1.678-1.683-.651-.536-1.054-.404-1.84-.278-3.439.55-13.315 6.512-17.318 10.453 0 0-1.138.769-1.389 1.368-.183.439-.108 1.036.002 1.426.369 1.311 3.135 3.81 6.814 6.669.73.568 4.299 3.368 4.561 4.088.173.473.09 1.015 0 1.51-.201 1.115-1.19 3.183-1.19 3.183s-1.068 2.503-1.191 3.183c-.135.855-.048 1.422.424 2.095.352.503 2.041 1.34 7.589 1.894 1.57.157 3.13.411 3.468.565 1.461.79 2.036 2.946 2.807 4.393v8.329l-.86-.122c-.473-.068-2.289-.501-4.035-.962-3.194-.845-7.13-1.623-8.171-1.615-1.217.019-1.42.675-1.517 1.736-.131.703-.536 5.153-.901 9.889-.712 9.268-1.068 12.643-1.431 13.576-.127.325-.613.949-1.08 1.385s-2.946 3.116-5.508 5.953-6.15 6.652-7.974 8.475c-1.278 1.226-2.47 2.998-4.1 3.941-.996.242-2.01-.216-2.967-.459-1.138-.289-6.043-1.967-10.899-3.728s-9.466-3.368-10.243-3.571a16 16 0 0 0-2.263-.504c.18.904.433 1.79.669 2.68.631 2.384 3.036 8.391 5.095 12.726l1.687 3.552-.172.549c-.262.837-1.384 2.381-4.044 5.562-2.668 2.822-2.898 3.57-2.737 4.154.458 1.594 3.128-.339 5.957-.642 2.115-.363 3.972.222 5.884.99 1.31.525 3.852 1.673 5.65 2.55s3.324 1.539 3.39 1.472-.302-.964-.821-1.994l-.943-1.873c-.897-3.42 4.072.502 4.991 1.111 1.129.75 2.331 1.524 3.301 2.131.986.65 2.028 1.201 3.066 1.761.983.734 1.455 1.301.097 2.1-1.047.873-5.854 3.624-10.095 5.776l-3.27 1.66h-1.268c-.697 0-2.871-.238-4.831-.53-3.776-.561-6.292-.715-6.777-.414-.319.331-.399.775-.295 1.193.172.557 1.687 2.471 1.687 2.471 3.193 4.678 2.98 5.001 1.812 5.681l-.732.489-1.716 1.147c-1.75 1.17-3.47 2.2-3.822 2.288l-.64.161-5.504-1.364c-3.028-.75-6.439-1.583-7.597-1.763-.979-.152-1.978-.555-2.981-.395-.484.145-.581 2.478-.351 6.926.062 1.203.404 3.895.404 3.895.437 4.213 1.369 11.832 1.618 13.222.085.473.25.86.368.86s.338-.387.488-.86zm60.011-54.372c-.344-.606-.934-5.18-1.896-14.711l-.664-6.576-.018-.153.215-.199a32 32 0 0 1 2.578-2.058c1.309-.938 2.601-1.952 2.871-2.252l.491-.546.228-5.24c.125-2.882.301-6.214.391-7.403.088-1.025-.059-2.005.247-2.899.145-.18.215-.256.609-.212.395.044 1.475.917 1.475.917.811.504 2.907 2.143 4.658 3.642l3.184 2.726v33.84h-.166c-.092 0-.63-.419-1.196-.93l-1.029-.93-.723.176c-.397.097-2.802.813-5.344 1.591-4.508 1.381-5.681 1.622-5.911 1.217m43.442-43.409-6.451-5.507-.06-23.928-.061-23.927 2.339-2.509 2.338-2.509.981.524c.54.289 1.622 1.095 2.406 1.792l1.425 1.266 1.192 1.914c2.608 4.184 5.271 10.66 6.772 16.469 1.018 3.939 1.524 6.895 1.988 11.628l.39 3.968-.002 3.175-.002 3.175-.391 3.44c-.689 6.062-1.737 9.449-4.315 13.957l-1.476 2.58h-.311c-.171 0-3.214-2.479-6.762-5.508m-37.139-30.209-1.193-.821c-1.545-1.636-.647-3.873-.001-5.664.264-.782.686-1.696.794-2.348a7 7 0 0 0-.653-4.28c-.508-1.326-1.488-2.312-2.382-3.387-1.796-2.159-1.834-2.231-1.562-2.941.3-.782 8.316-6.259 9.258-6.653.869-.57 1.28-.285 2.153.165.34.151 1.329.692 1.441.868l.203.32.004 12.78.004 12.78s-1.009.606-1.835.766-2.495.144-3.06-.037c-.564-.182-2.185-.889-3.171-1.548M269.405 413.87c.586-.412.865-1.085 1.21-1.69.906-1.537 1.376-3.216 1.487-4.972l-.128.16c-.987 1.111-1.604 2.526-2.637 3.593-1.486 1.056-3.073 1.975-4.611 2.964l-.788.541 1.067-.091 1.767-.174 1.767-.174s.606-.022.866-.157m96.927-146.864c1.204-2.866 3.939-8.488 3.939-8.488l-5.424-.39-.311 3.175c-.336 3.436-.682 6.587-.682 6.587.851-.232 1.667-.545 2.478-.884" style="stroke-width:.264583" transform="translate(-26.92 -133.18)"/></svg>