<?xml version="1.0" encoding="utf-8"?>
<!-- Generator: Adobe Illustrator 28.0.0, SVG Export Plug-In . SVG Version: 6.00 Build 0)  -->
<svg version="1.1" id="Layer_1" xmlns="http://www.w3.org/2000/svg" xmlns:xlink="http://www.w3.org/1999/xlink" x="0px" y="0px"
	 viewBox="0 0 283.5 283.5" style="enable-background:new 0 0 283.5 283.5;" xml:space="preserve">
<style type="text/css">
	.st0{fill:#FFFFFF;}
</style>
<g>
	<g>
		<path class="st0" d="M191.5,130.8v-8.6c0,0,22,0.3,32.7,0.4v-16.3h-49.7v40.1c11.6,0.2,23.6,0.4,33.9,0.8v9
			c-11.3-0.4-24.3-0.7-36.7-0.9c1.6,5.3,3.3,10.6,4.9,15.9c16.1,0.4,32.4,1.2,48.6,2.2l-0.1-41.9
			C214.3,131.2,191.5,130.8,191.5,130.8z"/>
		<path class="st0" d="M228.3,106.3v16.4c6,0.1,13.1,0.2,19,0.3l0.1,52.6c5.7,0.4,11.5,0.9,17.2,1.5l-0.1-53.6l3.1,0.1
			c5.2,0.1,10.8,0.3,15.9,0.4v-17.8H228.3z"/>
		<path class="st0" d="M79.7,106.3H65.1c-1,3.4-2,6.7-3,10.1l-0.1,57.5c14.6-0.9,29.3-1.6,43.9-1.9c1.7-5.4,3.4-10.8,5.1-16.2
			c-10.7,0.2-21.9,0.4-31.4,0.8V106.3z"/>
		<path class="st0" d="M152.9,106.3h-22.6c-6.4,20.9-13.2,43.2-20,65.6c6-0.2,12.2-0.3,18.3-0.3l4.4-15.8c2.5,0,14.8,0,17.7,0
			l4.7,15.2c5.5,0.1,11.2,0.2,16.8,0.3C165.4,148.3,158.7,125.7,152.9,106.3z M137.2,140.6l4.4-15.6l4.7,15.6H137.2z"/>
		<path class="st0" d="M31.2,148.5c0,0-8.7-29.4-12.5-42.2H0c6.9,23.3,14,47.1,21.4,70.8c6.8-0.6,13.7-1.2,20.4-1.7
			c6.1-22.4,12.3-45,19.2-69.1H42.3C38.8,119.4,31.2,148.5,31.2,148.5z"/>
	</g>
</g>
</svg>
